<svg width="1080" height="1080" viewBox="0 0 1080 1080" fill="none" xmlns="http://www.w3.org/2000/svg">
<mask id="path-1-outside-1_79_1235" maskUnits="userSpaceOnUse" x="118" y="221" width="844" height="639" fill="black">
<rect fill="white" x="118" y="221" width="844" height="639"/>
<path d="M744.989 438H538.643C538.649 598.754 677.107 641.641 744.989 642.989V847.989C420.988 847.989 336.054 578.633 335 441.659V848H130V233H744.989V438ZM950 847.989H745V437.989H950V847.989Z"/>
</mask>
<path d="M744.989 438H538.643C538.649 598.754 677.107 641.641 744.989 642.989V847.989C420.988 847.989 336.054 578.633 335 441.659V848H130V233H744.989V438ZM950 847.989H745V437.989H950V847.989Z" fill="url(#paint0_linear_79_1235)"/>
<path d="M744.989 438V449.714H756.704V438H744.989ZM538.643 438V426.286H526.928L526.928 438L538.643 438ZM744.989 642.989H756.704V631.505L745.222 631.277L744.989 642.989ZM744.989 847.989V859.704H756.704V847.989H744.989ZM335 441.659L346.714 441.569L323.286 441.659H335ZM335 848V859.714H346.714V848H335ZM130 848H118.286V859.714H130V848ZM130 233V221.286H118.286V233H130ZM744.989 233H756.704V221.286H744.989V233ZM950 847.989V859.704H961.714V847.989H950ZM745 847.989H733.286V859.704H745V847.989ZM745 437.989V426.275H733.286V437.989H745ZM950 437.989H961.714V426.275H950V437.989ZM744.989 438V426.286H538.643V438V449.714H744.989V438ZM538.643 438L526.928 438C526.932 522.342 563.524 576.714 609.525 609.783C654.951 642.44 708.984 653.991 744.757 654.701L744.989 642.989L745.222 631.277C713.112 630.639 663.975 620.072 623.2 590.76C583 561.86 550.36 514.412 550.357 438L538.643 438ZM744.989 642.989H733.275V847.989H744.989H756.704V642.989H744.989ZM744.989 847.989V836.275C586.785 836.275 488.036 770.767 428.339 689.267C368.224 607.195 347.226 508.152 346.714 441.569L335 441.659L323.286 441.749C323.827 512.139 345.824 616.262 409.439 703.111C473.473 790.534 579.192 859.704 744.989 859.704V847.989ZM335 441.659H323.286V848H335H346.714V441.659H335ZM335 848V836.286H130V848V859.714H335V848ZM130 848H141.714V233H130H118.286V848H130ZM130 233V244.714H744.989V233V221.286H130V233ZM744.989 233H733.275V438H744.989H756.704V233H744.989ZM950 847.989V836.275H745V847.989V859.704H950V847.989ZM745 847.989H756.714V437.989H745H733.286V847.989H745ZM745 437.989V449.704H950V437.989V426.275H745V437.989ZM950 437.989H938.286V847.989H950H961.714V437.989H950Z" fill="#41C696" mask="url(#path-1-outside-1_79_1235)"/>
<defs>
<linearGradient id="paint0_linear_79_1235" x1="141.714" y1="244.714" x2="926.571" y2="818.714" gradientUnits="userSpaceOnUse">
<stop stop-color="#0C5843"/>
<stop offset="1" stop-color="#1EA87D"/>
</linearGradient>
</defs>
</svg>
