<svg width="1080" height="1080" viewBox="0 0 1080 1080" fill="none" xmlns="http://www.w3.org/2000/svg">
<g clip-path="url(#clip0_79_1215)">
<path d="M141.575 834.474C161.398 833.538 190.633 823.339 208.836 815.388C343.997 756.329 428.339 613.034 475.845 479.458C483.771 456.55 491.129 433.449 497.913 410.176C503.323 392.13 508.051 373.629 512.25 355.264C514.383 345.934 517.207 328.347 520.613 320.514C523.8 313.184 530.979 305.161 535.708 298.522C539.185 293.644 542.319 288.487 545.873 283.678C556.666 269.079 593.138 221.031 611.105 220.277C612.685 220.21 614.567 220.591 615.793 221.665C617.957 223.56 617.779 228.608 617.77 231.244C617.74 240.198 615.58 248.122 613.885 256.797C609.677 278.321 604.376 299.427 599.212 320.725C569.097 444.926 519.498 584.762 441.867 687.453C425.918 708.455 408.442 728.25 389.583 746.678C332.746 802.674 254.243 843.417 173.952 841.379C163.055 841.102 152.148 840.786 141.246 840.703C141.001 838.173 141.256 836.966 141.575 834.474Z" fill="#FE0100"/>
<path d="M772.736 220.627C775.684 220.479 778.974 220.968 781.944 221.304C782.547 241.097 780.418 244.939 776.579 263.599C772.233 284.731 767.698 304.672 762.322 325.593C755.382 352.637 748.474 379.347 740.234 406.064C701.859 526.359 649.783 649.691 559.727 740.699C550.88 748.379 542.053 758.6 532.965 765.804C499.117 792.654 462.096 816.64 420.331 828.905C405.208 833.351 388.289 838.39 372.497 840.084C350.222 842.471 327.461 840.815 305.174 840.594C299.254 839.448 298.311 838.097 293.57 834.149C307.978 837.111 332.666 830.262 346.847 825.638C412.122 804.359 468.426 761.336 512.803 709.475C516.177 705.533 519.037 701.18 522.297 697.144C529.404 688.351 536.777 679.624 543.49 670.521C553.641 656.762 562.485 641.8 571.352 627.194C574.378 622.21 577.695 617.393 580.555 612.304C587.197 600.499 593.157 588.212 599.145 576.064C601.735 570.815 604.72 565.759 607.187 560.444C609.594 555.255 611.54 549.857 613.888 544.646C627.659 514.387 639.637 483.343 649.761 451.676C658.545 423.627 666.636 395.364 674.025 366.913C675.839 359.788 682.79 324.278 684.814 321.221C700.72 297.213 746.655 228.956 772.736 220.627Z" fill="#8D0100"/>
<path d="M938.16 221.136C941.39 220.776 945.742 220.856 949.021 220.848C949.801 225.471 949.917 230.301 949.774 234.983C949.508 243.486 947.207 251.647 945.493 259.94C941.284 280.357 936.263 300.427 931.402 320.689C895.963 468.494 830.423 645.278 717.123 750.998C672.321 792.803 618.121 825.477 557.432 837.15C552.453 838.108 547.468 839.442 542.435 840.057C520.422 842.748 498.125 841.325 476.065 840.544C469.245 839.78 467.275 838.379 461.678 834.52C493.77 838.938 556.744 810.815 583.528 793.667C741.456 692.393 813.235 499.587 851.897 324.197C853.966 314.825 889.509 270.557 896.494 261.256C905.603 249.131 924.92 228.749 938.16 221.136Z" fill="black"/>
<path d="M129.16 834.596C133.146 834.746 137.557 834.558 141.575 834.475C141.256 836.966 141.001 838.173 141.246 840.704C137.79 840.034 132.901 836.518 129.16 834.596Z" fill="#FE0100"/>
</g>
<defs>
<clipPath id="clip0_79_1215">
<rect width="1080" height="1080" fill="white"/>
</clipPath>
</defs>
</svg>
