<svg width="1080" height="1080" viewBox="0 0 1080 1080" fill="none" xmlns="http://www.w3.org/2000/svg">
<path d="M469.051 557.979C463.915 564.436 458.749 571.644 453.554 579.603C452.593 581.044 432.846 611.258 394.313 670.243C371.968 704.391 379.762 732.367 402.917 766.425C413.91 782.613 431.014 808.937 454.229 845.398C466.618 864.859 482.07 880.942 502.703 884.681C522.135 888.195 538.998 885.897 553.294 877.788C561.043 873.404 572.23 860.474 586.857 839C610.102 804.822 632.537 771.11 654.161 737.863" stroke="#95CBFF" stroke-width="2"/>
<path d="M654.161 737.863C747.805 595.295 840.263 453.298 931.534 311.871C946.31 288.985 955.456 270.38 947.662 245.827C936.79 211.529 912.943 194.47 876.123 194.651C817.768 194.891 778.364 194.876 757.911 194.605C727.052 194.245 702.32 200.011 686.822 223.978C614.803 334.951 542.212 446.285 469.051 557.979" stroke="#809AC7" stroke-width="2"/>
<path d="M654.161 737.865C658.486 711.766 655.227 690.142 644.385 672.993C631.561 652.63 611.949 622.191 585.55 581.676C566.629 552.664 551.627 537.077 518.065 536.266C499.955 535.815 483.617 543.053 469.051 557.98" stroke="#1666C6" stroke-width="2"/>
<path d="M445.175 440.443C452.39 429.323 456.229 416.352 456.229 403.096C456.229 389.841 452.39 376.87 445.175 365.75L396.295 290.517C390.066 280.932 381.54 273.056 371.494 267.604C361.447 262.152 350.197 259.297 338.766 259.297H200.328C187.977 259.297 175.855 262.63 165.241 268.946C154.627 275.262 145.914 284.326 140.023 295.181C134.132 306.036 131.28 318.281 131.769 330.622C132.257 342.963 136.068 354.944 142.799 365.3L260.92 547.121C267.151 556.713 275.681 564.595 285.735 570.05C295.788 575.505 307.046 578.36 318.484 578.356C329.922 578.351 341.177 575.487 351.226 570.024C361.275 564.562 369.799 556.673 376.023 547.076L445.175 440.443Z" stroke="#809AC7" stroke-width="2"/>
<path d="M654.161 737.863C658.486 711.764 655.227 690.14 644.385 672.991C631.561 652.629 611.949 622.19 585.55 581.675C566.629 552.663 551.627 537.076 518.065 536.265C499.955 535.814 483.617 543.052 469.051 557.979C542.212 446.285 614.803 334.951 686.822 223.978C702.32 200.011 727.052 194.245 757.911 194.605C778.364 194.876 817.768 194.891 876.123 194.651C912.943 194.47 936.79 211.529 947.662 245.827C955.456 270.38 946.31 288.985 931.534 311.871C840.263 453.298 747.805 595.295 654.161 737.863Z" fill="#00358E"/>
<path d="M445.174 440.443L376.023 547.076C369.799 556.673 361.275 564.562 351.226 570.024C341.177 575.487 329.922 578.351 318.484 578.356C307.046 578.36 295.788 575.505 285.735 570.05C275.681 564.595 267.151 556.713 260.92 547.121L142.799 365.3C136.068 354.944 132.257 342.963 131.769 330.622C131.28 318.281 134.132 306.036 140.023 295.181C145.914 284.326 154.627 275.262 165.241 268.946C175.855 262.63 187.977 259.297 200.328 259.297H338.766C350.197 259.297 361.447 262.152 371.494 267.604C381.54 273.056 390.066 280.932 396.295 290.517L445.174 365.75C452.39 376.87 456.229 389.841 456.229 403.096C456.229 416.352 452.39 429.323 445.174 440.443Z" fill="#00358E"/>
<path d="M654.161 737.865C632.537 771.112 610.102 804.824 586.857 839.002C572.23 860.476 561.043 873.405 553.294 877.79C538.998 885.899 522.135 888.197 502.703 884.683C482.07 880.943 466.618 864.861 454.229 845.399C431.014 808.939 413.91 782.614 402.917 766.426C379.762 732.369 371.968 704.393 394.313 670.245C432.846 611.259 452.593 581.046 453.554 579.604C458.749 571.645 463.915 564.437 469.051 557.98C483.617 543.053 499.955 535.815 518.065 536.266C551.627 537.077 566.629 552.664 585.55 581.676C611.949 622.191 631.561 652.63 644.385 672.993C655.227 690.142 658.486 711.766 654.161 737.865Z" fill="#2B96FE"/>
</svg>
