<svg width="214" height="46" viewBox="0 0 214 46" fill="none" xmlns="http://www.w3.org/2000/svg">
<path d="M0 0H43.3033V45.3174H0V0Z" fill="white"/>
<path d="M43.3036 0V45.3182H0V0H43.3036ZM0.504102 44.8141H42.7995V0.504102H0.504102V44.8141Z" fill="#999999"/>
<path d="M33.2333 2.01465L41.2898 2.01465V43.3039H29.7086L33.2333 2.01465Z" fill="#E48100"/>
<path d="M23.4146 11.8334L33.2333 2.01465L32.2263 19.6381L23.4146 11.8334Z" fill="#E48100"/>
<path d="M10.0701 2.01465L2.01367 2.01465V43.3039H13.5948L10.0701 2.01465Z" fill="#B50F11"/>
<path d="M19.8889 11.8334L10.0701 2.01465L11.0772 19.6381L19.8889 11.8334Z" fill="#B50F11"/>
<path d="M201.859 23.5547L213.732 42.0282H202.752L189.986 19.5462H195.084C195.215 19.5462 195.542 19.5608 196.064 19.5898C196.587 19.6189 197.03 19.6334 197.393 19.6334C202.375 19.6334 204.931 17.4622 205.062 13.1197C205.062 10.825 204.473 9.00237 203.297 7.65171C202.121 6.30104 200.567 5.62571 198.635 5.62571H190.161V42.0282H180.706V0.440918H199.811C209.092 0.440918 213.732 4.45659 213.732 12.4879C213.601 15.7702 212.657 18.2246 210.9 19.8512C209.143 21.4778 207.196 22.538 205.062 23.0318C203.435 23.4239 202.426 23.62 202.033 23.62C201.917 23.62 201.859 23.5982 201.859 23.5547Z" fill="#343434"/>
<path d="M155.764 0.26709C160.107 0.26709 163.607 1.05134 166.265 2.61985C168.923 4.17384 170.825 6.48304 171.972 9.54744C173.12 12.6118 173.693 16.4823 173.693 21.1588C173.693 25.966 173.062 29.9453 171.798 33.0969C170.535 36.2339 168.574 38.5649 165.916 40.0898C163.273 41.6147 159.86 42.3772 155.677 42.3772C151.654 42.3772 148.35 41.6293 145.765 40.1334C143.18 38.6375 141.27 36.321 140.036 33.184C138.801 30.047 138.184 26.0386 138.184 21.1588C138.228 14.1876 139.687 8.97377 142.563 5.51724C145.453 2.06071 149.854 0.31066 155.764 0.26709ZM147.987 21.1588C148.147 26.0241 148.663 29.8001 149.534 32.4869C150.405 35.1737 152.453 36.5389 155.677 36.5824C158.059 36.5824 159.831 35.8635 160.993 34.4257C162.169 32.9734 162.91 31.1871 163.215 29.0667C163.534 26.9318 163.694 24.3539 163.694 21.333C163.694 18.2396 163.556 15.6762 163.28 13.643C163.019 11.6097 162.314 9.84516 161.167 8.34927C160.02 6.83885 158.277 6.07639 155.939 6.06186C152.613 6.06186 150.456 7.41978 149.469 10.1356C148.481 12.8515 147.987 16.5259 147.987 21.1588Z" fill="#343434"/>
<path d="M114.398 0.26709C118.74 0.26709 122.24 1.05134 124.898 2.61985C127.556 4.17384 129.458 6.48304 130.606 9.54744C131.753 12.6118 132.327 16.4823 132.327 21.1588C132.327 25.966 131.695 29.9453 130.431 33.0969C129.168 36.2339 127.207 38.5649 124.55 40.0898C121.906 41.6147 118.493 42.3772 114.311 42.3772C110.288 42.3772 106.984 41.6293 104.399 40.1334C101.813 38.6375 99.9036 36.321 98.6691 33.184C97.4346 30.047 96.8174 26.0386 96.8174 21.1588C96.861 14.1876 98.3205 8.97377 101.196 5.51724C104.086 2.06071 108.487 0.31066 114.398 0.26709ZM106.621 21.1588C106.78 26.0241 107.296 29.8001 108.167 32.4869C109.039 35.1737 111.086 36.5389 114.311 36.5824C116.692 36.5824 118.464 35.8635 119.626 34.4257C120.803 32.9734 121.543 31.1871 121.848 29.0667C122.168 26.9318 122.327 24.3539 122.327 21.333C122.327 18.2396 122.189 15.6762 121.914 13.643C121.652 11.6097 120.948 9.84516 119.8 8.34927C118.653 6.83885 116.91 6.07639 114.572 6.06186C111.246 6.06186 109.09 7.41978 108.102 10.1356C107.114 12.8515 106.621 16.5259 106.621 21.1588Z" fill="#343434"/>
<path d="M76.1237 0.440918C81.4683 0.440918 85.2588 2.26358 87.4954 5.90892C89.732 9.55425 90.8503 14.6374 90.8503 21.1583C90.8503 25.8493 90.3492 29.7343 89.3471 32.8132C88.3595 35.8776 86.762 38.1796 84.5545 39.719C82.3615 41.2585 79.4931 42.0282 75.9494 42.0282H57.7373V0.440918H76.1237ZM83.1602 21.1583C83.1312 17.8761 82.877 15.1239 82.3978 12.9019C81.9185 10.6798 80.96 8.91523 79.5222 7.60814C78.0844 6.28652 76.0003 5.62571 73.2699 5.62571H67.1919V36.8434H73.9888C77.576 36.8434 80.0014 35.5363 81.265 32.9221C82.5285 30.308 83.1602 26.3867 83.1602 21.1583Z" fill="#343434"/>
</svg>
