<svg width="95" height="95" viewBox="0 0 95 95" fill="none" xmlns="http://www.w3.org/2000/svg">
<g filter="url(#filter0_dd_56_5560)">
<g clip-path="url(#clip0_56_5560)">
<path d="M7.5 37C7.5 25.7989 7.5 20.1984 9.67987 15.9202C11.5973 12.1569 14.6569 9.09734 18.4202 7.17987C22.6984 5 28.2989 5 39.5 5H55.5C66.7011 5 72.3016 5 76.5798 7.17987C80.3431 9.09734 83.4027 12.1569 85.3201 15.9202C87.5 20.1984 87.5 25.7989 87.5 37V53C87.5 64.2011 87.5 69.8016 85.3201 74.0798C83.4027 77.8431 80.3431 80.9027 76.5798 82.8201C72.3016 85 66.7011 85 55.5 85H39.5C28.2989 85 22.6984 85 18.4202 82.8201C14.6569 80.9027 11.5973 77.8431 9.67987 74.0798C7.5 69.8016 7.5 64.2011 7.5 53V37Z" fill="#1E1E1E"/>
<path d="M7.5 37C7.5 25.7989 7.5 20.1984 9.67987 15.9202C11.5973 12.1569 14.6569 9.09734 18.4202 7.17987C22.6984 5 28.2989 5 39.5 5H55.5C66.7011 5 72.3016 5 76.5798 7.17987C80.3431 9.09734 83.4027 12.1569 85.3201 15.9202C87.5 20.1984 87.5 25.7989 87.5 37V53C87.5 64.2011 87.5 69.8016 85.3201 74.0798C83.4027 77.8431 80.3431 80.9027 76.5798 82.8201C72.3016 85 66.7011 85 55.5 85H39.5C28.2989 85 22.6984 85 18.4202 82.8201C14.6569 80.9027 11.5973 77.8431 9.67987 74.0798C7.5 69.8016 7.5 64.2011 7.5 53V37Z" fill="url(#paint0_linear_56_5560)"/>
<path fill-rule="evenodd" clip-rule="evenodd" d="M47.4994 10.0965C28.2231 10.0965 12.5965 25.7231 12.5965 44.9994C12.5965 64.2758 28.2231 79.9023 47.4994 79.9023C66.7758 79.9023 82.4023 64.2758 82.4023 44.9994C82.4023 25.7231 66.7758 10.0965 47.4994 10.0965ZM12.4023 44.9994C12.4023 25.6158 28.1158 9.90234 47.4994 9.90234C66.883 9.90234 82.5965 25.6158 82.5965 44.9994C82.5965 64.383 66.883 80.0965 47.4994 80.0965C28.1158 80.0965 12.4023 64.383 12.4023 44.9994Z" fill="#424242"/>
<path fill-rule="evenodd" clip-rule="evenodd" d="M47.5 35.1942C42.0844 35.1942 37.6942 39.5844 37.6942 45C37.6942 50.4156 42.0844 54.8058 47.5 54.8058C52.9156 54.8058 57.3058 50.4156 57.3058 45C57.3058 39.5844 52.9156 35.1942 47.5 35.1942ZM37.5 45C37.5 39.4772 41.9772 35 47.5 35C53.0228 35 57.5 39.4772 57.5 45C57.5 50.5228 53.0228 55 47.5 55C41.9772 55 37.5 50.5228 37.5 45Z" fill="#424242"/>
<path fill-rule="evenodd" clip-rule="evenodd" d="M47.4987 38.2996C43.7989 38.2996 40.7996 41.2989 40.7996 44.9987C40.7996 48.6984 43.7989 51.6977 47.4987 51.6977C51.1984 51.6977 54.1977 48.6984 54.1977 44.9987C54.1977 41.2989 51.1984 38.2996 47.4987 38.2996ZM40.6055 44.9987C40.6055 41.1917 43.6917 38.1055 47.4987 38.1055C51.3057 38.1055 54.3919 41.1917 54.3919 44.9987C54.3919 48.8057 51.3057 51.8919 47.4987 51.8919C43.6917 51.8919 40.6055 48.8057 40.6055 44.9987Z" fill="#424242"/>
<path d="M47.4023 5H47.5965V85H47.4023V5Z" fill="#424242"/>
<path d="M87.5 44.9023L87.5 45.0965L7.5 45.0965L7.5 44.9023L87.5 44.9023Z" fill="#424242"/>
<path d="M74.0039 5H74.1981V85H74.0039V5Z" fill="#424242"/>
<path d="M34.1016 5H34.2957V85H34.1016V5Z" fill="#424242"/>
<path d="M60.707 5H60.9012V85H60.707V5Z" fill="#424242"/>
<path d="M20.8008 5H20.995V85H20.8008V5Z" fill="#424242"/>
<path d="M87.5 71.5039L87.5 71.6981L7.5 71.6981L7.5 71.5039L87.5 71.5039Z" fill="#424242"/>
<path d="M87.5 31.6016L87.5 31.7957L7.5 31.7957L7.5 31.6016L87.5 31.6016Z" fill="#424242"/>
<path d="M87.5 58.2031L87.5 58.3973L7.5 58.3973L7.5 58.2031L87.5 58.2031Z" fill="#424242"/>
<path d="M87.5 18.3008L87.5 18.495L7.5 18.495L7.5 18.3008L87.5 18.3008Z" fill="#424242"/>
<mask id="path-16-outside-1_56_5560" maskUnits="userSpaceOnUse" x="19.3027" y="23.1992" width="57" height="44" fill="black">
<rect fill="white" x="19.3027" y="23.1992" width="57" height="44"/>
<path d="M62.3008 38.1992H34.3027V38.2002H48.209C48.2092 48.4388 56.4328 51.675 61.3018 52.1396V38.2002H75.3018V66.2002H61.3018V66.1865C40.0319 65.6424 34.391 47.7191 34.3027 38.4941V66.1992H20.3027V24.1992H62.3008V38.1992Z"/>
</mask>
<path d="M62.3008 38.1992H34.3027V38.2002H48.209C48.2092 48.4388 56.4328 51.675 61.3018 52.1396V38.2002H75.3018V66.2002H61.3018V66.1865C40.0319 65.6424 34.391 47.7191 34.3027 38.4941V66.1992H20.3027V24.1992H62.3008V38.1992Z" fill="url(#paint1_linear_56_5560)"/>
<path d="M62.3008 38.1992V38.9992H63.1008V38.1992H62.3008ZM34.3027 38.1992V37.3992H33.5027V38.1992H34.3027ZM34.3027 38.2002H33.5027V39.0002H34.3027V38.2002ZM48.209 38.2002L49.009 38.2002L49.009 37.4002H48.209V38.2002ZM61.3018 52.1396L61.2258 52.936L62.1018 53.0196V52.1396H61.3018ZM61.3018 38.2002V37.4002H60.5018V38.2002H61.3018ZM75.3018 38.2002H76.1018V37.4002H75.3018V38.2002ZM75.3018 66.2002V67.0002H76.1018V66.2002H75.3018ZM61.3018 66.2002H60.5018V67.0002H61.3018V66.2002ZM61.3018 66.1865H62.1018V65.4067L61.3222 65.3868L61.3018 66.1865ZM34.3027 38.4941L35.1027 38.4865L33.5027 38.4941H34.3027ZM34.3027 66.1992V66.9992H35.1027V66.1992H34.3027ZM20.3027 66.1992H19.5027V66.9992H20.3027V66.1992ZM20.3027 24.1992V23.3992H19.5027V24.1992H20.3027ZM62.3008 24.1992H63.1008V23.3992H62.3008V24.1992ZM62.3008 38.1992V37.3992H34.3027V38.1992V38.9992H62.3008V38.1992ZM34.3027 38.1992H33.5027V38.2002H34.3027H35.1027V38.1992H34.3027ZM34.3027 38.2002V39.0002H48.209V38.2002V37.4002H34.3027V38.2002ZM48.209 38.2002L47.409 38.2002C47.4091 43.5668 49.5787 47.1626 52.4277 49.4581C55.2452 51.7284 58.6806 52.6931 61.2258 52.936L61.3018 52.1396L61.3778 51.3433C59.054 51.1215 55.9431 50.2359 53.4315 48.2122C50.9514 46.2138 49.0091 43.0723 49.009 38.2002L48.209 38.2002ZM61.3018 52.1396H62.1018V38.2002H61.3018H60.5018V52.1396H61.3018ZM61.3018 38.2002V39.0002H75.3018V38.2002V37.4002H61.3018V38.2002ZM75.3018 38.2002H74.5018V66.2002H75.3018H76.1018V38.2002H75.3018ZM75.3018 66.2002V65.4002H61.3018V66.2002V67.0002H75.3018V66.2002ZM61.3018 66.2002H62.1018V66.1865H61.3018H60.5018V66.2002H61.3018ZM61.3018 66.1865L61.3222 65.3868C50.9469 65.1213 44.4489 60.6352 40.5098 55.1301C36.5444 49.5884 35.1456 42.9706 35.1027 38.4865L34.3027 38.4941L33.5028 38.5018C33.5481 43.2426 35.0139 50.199 39.2086 56.0612C43.4294 61.96 50.3868 66.7075 61.2813 66.9863L61.3018 66.1865ZM34.3027 38.4941H33.5027V66.1992H34.3027H35.1027V38.4941H34.3027ZM34.3027 66.1992V65.3992H20.3027V66.1992V66.9992H34.3027V66.1992ZM20.3027 66.1992H21.1027V24.1992H20.3027H19.5027V66.1992H20.3027ZM20.3027 24.1992V24.9992H62.3008V24.1992V23.3992H20.3027V24.1992ZM62.3008 24.1992H61.5008V38.1992H62.3008H63.1008V24.1992H62.3008Z" fill="#1E1E1E" mask="url(#path-16-outside-1_56_5560)"/>
</g>
<path d="M39.5 5.25H55.5C61.1044 5.25 65.2928 5.25006 68.6152 5.52148C71.9348 5.7927 74.3688 6.33336 76.4668 7.40234C80.1828 9.29581 83.2042 12.3172 85.0977 16.0332C86.1666 18.1312 86.7073 20.5652 86.9785 23.8848C87.2499 27.2072 87.25 31.3956 87.25 37V53C87.25 58.6044 87.2499 62.7928 86.9785 66.1152C86.7073 69.4348 86.1666 71.8688 85.0977 73.9668C83.2042 77.6828 80.1828 80.7042 76.4668 82.5977C74.3688 83.6666 71.9348 84.2073 68.6152 84.4785C65.2928 84.7499 61.1044 84.75 55.5 84.75H39.5C33.8956 84.75 29.7072 84.7499 26.3848 84.4785C23.0652 84.2073 20.6312 83.6666 18.5332 82.5977C14.8172 80.7042 11.7958 77.6828 9.90234 73.9668C8.83336 71.8688 8.2927 69.4348 8.02148 66.1152C7.75006 62.7928 7.75 58.6044 7.75 53V37C7.75 31.3956 7.75006 27.2072 8.02148 23.8848C8.2927 20.5652 8.83336 18.1312 9.90234 16.0332C11.7958 12.3172 14.8172 9.29581 18.5332 7.40234C20.6312 6.33336 23.0652 5.7927 26.3848 5.52148C29.7072 5.25006 33.8956 5.25 39.5 5.25Z" stroke="#424242" stroke-width="0.5"/>
</g>
<defs>
<filter id="filter0_dd_56_5560" x="0" y="0" width="95" height="95" filterUnits="userSpaceOnUse" color-interpolation-filters="sRGB">
<feFlood flood-opacity="0" result="BackgroundImageFix"/>
<feColorMatrix in="SourceAlpha" type="matrix" values="0 0 0 0 0 0 0 0 0 0 0 0 0 0 0 0 0 0 127 0" result="hardAlpha"/>
<feOffset dy="2.5"/>
<feGaussianBlur stdDeviation="2.5"/>
<feColorMatrix type="matrix" values="0 0 0 0 0.0627451 0 0 0 0 0.0941176 0 0 0 0 0.156863 0 0 0 0.06 0"/>
<feBlend mode="normal" in2="BackgroundImageFix" result="effect1_dropShadow_56_5560"/>
<feColorMatrix in="SourceAlpha" type="matrix" values="0 0 0 0 0 0 0 0 0 0 0 0 0 0 0 0 0 0 127 0" result="hardAlpha"/>
<feOffset dy="2.5"/>
<feGaussianBlur stdDeviation="3.75"/>
<feColorMatrix type="matrix" values="0 0 0 0 0.0627451 0 0 0 0 0.0941176 0 0 0 0 0.156863 0 0 0 0.1 0"/>
<feBlend mode="normal" in2="effect1_dropShadow_56_5560" result="effect2_dropShadow_56_5560"/>
<feBlend mode="normal" in="SourceGraphic" in2="effect2_dropShadow_56_5560" result="shape"/>
</filter>
<linearGradient id="paint0_linear_56_5560" x1="47.5" y1="5" x2="47.5" y2="85" gradientUnits="userSpaceOnUse">
<stop stop-color="#1E1E1E"/>
<stop offset="1"/>
</linearGradient>
<linearGradient id="paint1_linear_56_5560" x1="21.1027" y1="24.9992" x2="74.7033" y2="64.1981" gradientUnits="userSpaceOnUse">
<stop stop-color="#CCCCCC"/>
<stop offset="1" stop-color="white"/>
</linearGradient>
<clipPath id="clip0_56_5560">
<path d="M7.5 37C7.5 25.7989 7.5 20.1984 9.67987 15.9202C11.5973 12.1569 14.6569 9.09734 18.4202 7.17987C22.6984 5 28.2989 5 39.5 5H55.5C66.7011 5 72.3016 5 76.5798 7.17987C80.3431 9.09734 83.4027 12.1569 85.3201 15.9202C87.5 20.1984 87.5 25.7989 87.5 37V53C87.5 64.2011 87.5 69.8016 85.3201 74.0798C83.4027 77.8431 80.3431 80.9027 76.5798 82.8201C72.3016 85 66.7011 85 55.5 85H39.5C28.2989 85 22.6984 85 18.4202 82.8201C14.6569 80.9027 11.5973 77.8431 9.67987 74.0798C7.5 69.8016 7.5 64.2011 7.5 53V37Z" fill="white"/>
</clipPath>
</defs>
</svg>
