<svg width="1080" height="1080" viewBox="0 0 1080 1080" fill="none" xmlns="http://www.w3.org/2000/svg">
<circle cx="539.5" cy="540.5" r="400.5" fill="white"/>
<path d="M498.305 230.336C495.906 224.802 494.677 218.874 494.688 212.889C494.698 206.904 495.948 200.98 498.366 195.455C500.784 189.93 504.322 184.913 508.78 180.688C513.237 176.464 518.526 173.117 524.344 170.837C530.162 168.556 536.396 167.388 542.689 167.399C548.982 167.41 555.212 168.6 561.022 170.901C566.832 173.201 572.109 176.567 576.551 180.807C580.994 185.046 584.515 190.077 586.914 195.61C589.312 201.143 590.542 207.072 590.531 213.057C590.521 219.041 589.271 224.965 586.853 230.49C584.435 236.015 580.896 241.033 576.439 245.257C571.982 249.481 566.693 252.829 560.875 255.109C555.057 257.389 548.823 258.557 542.53 258.546C536.237 258.535 530.007 257.346 524.197 255.045C518.387 252.745 513.11 249.379 508.667 245.139C504.225 240.899 500.704 235.869 498.305 230.336Z" stroke="#FDFD80" stroke-width="2.93548"/>
<path d="M376.432 184.044C387.665 179.151 399.28 175.736 411.276 173.799C411.402 173.779 411.531 173.787 411.654 173.824C411.776 173.86 411.888 173.924 411.983 174.01C412.077 174.096 412.151 174.202 412.199 174.32C412.247 174.439 412.268 174.567 412.259 174.694L405.288 264.637C405.252 265.048 405.338 265.459 405.533 265.822C405.729 266.184 406.026 266.482 406.388 266.677C459.77 295.885 484.325 353.01 494.115 410.237C498.059 433.281 500.162 456.642 500.427 480.322C500.43 480.576 500.533 480.819 500.711 480.997C500.89 481.176 501.13 481.276 501.381 481.276H525.452C525.658 481.276 525.856 481.192 526.002 481.044C526.148 480.895 526.23 480.694 526.23 480.483V338.333C526.23 337.99 526.367 337.661 526.612 337.419C526.857 337.177 527.189 337.041 527.536 337.041H546.558C546.896 337.041 547.221 337.175 547.461 337.415C547.7 337.654 547.835 337.979 547.835 338.318V480.748C547.835 480.892 547.893 481.03 547.998 481.132C548.103 481.233 548.245 481.291 548.392 481.291L573.373 481.305C573.464 481.304 573.554 481.284 573.637 481.245C573.719 481.207 573.792 481.152 573.85 481.084C573.909 481.015 573.952 480.935 573.976 480.85C574 480.764 574.005 480.674 573.99 480.586C573.902 480.107 574.029 469.382 574.371 448.413C574.694 428.912 576.152 410.536 578.745 393.285C584.47 355.104 601.309 323.039 629.265 297.089C641.819 285.435 655.538 274.853 670.421 265.342C670.759 265.123 671.032 264.82 671.213 264.464C671.394 264.107 671.475 263.711 671.448 263.316L665.283 175.149C665.271 174.964 665.3 174.779 665.368 174.606C665.435 174.434 665.54 174.278 665.675 174.151C665.809 174.023 665.97 173.927 666.146 173.869C666.322 173.81 666.508 173.791 666.692 173.813C698.131 177.409 728.484 192.542 753.95 210.874C797.175 242.005 833.824 281.472 863.502 325.475C874.784 342.198 883.997 359.292 891.14 376.758C893.439 382.365 895.191 388.202 896.394 394.268C896.417 394.396 896.413 394.527 896.381 394.652C896.35 394.778 896.292 394.895 896.211 394.997C896.131 395.098 896.029 395.181 895.914 395.24C895.799 395.3 895.672 395.333 895.543 395.34C836.011 397.835 779.572 412.811 726.224 440.267C699.756 453.888 675.357 469.24 653.028 486.325C611.569 518.048 574.053 554.247 540.481 594.923C540.374 595.053 540.239 595.157 540.087 595.228C539.935 595.299 539.769 595.337 539.601 595.337C539.432 595.337 539.266 595.299 539.114 595.228C538.962 595.157 538.827 595.053 538.72 594.923C500.177 548.939 456.761 506.785 406.829 473.614C361.847 443.741 312.932 422.322 260.084 409.357C234.76 403.143 208.958 398.51 182.675 395.457C182.587 395.447 182.503 395.418 182.427 395.373C182.351 395.328 182.285 395.268 182.234 395.196C182.183 395.124 182.147 395.042 182.13 394.956C182.112 394.869 182.113 394.78 182.132 394.694C188.326 364.737 203.664 336.131 221.981 311.355C249.115 274.652 281.826 242.792 320.115 215.776C337.962 203.183 356.735 192.605 376.432 184.044Z" stroke="#FB8281" stroke-width="2.93548"/>
<path d="M485.706 643.124C493.818 655.522 499.904 668.727 503.965 682.739C503.983 682.799 503.987 682.863 503.976 682.925C503.966 682.987 503.941 683.046 503.904 683.097C503.867 683.148 503.819 683.19 503.764 683.219C503.708 683.249 503.646 683.265 503.583 683.267C407.417 685.527 312.292 717.319 227.589 762.378C227.294 762.534 226.96 762.597 226.63 762.561C226.3 762.524 225.99 762.389 225.74 762.173C221.689 758.66 217.975 754.912 214.6 750.93C194.007 726.639 180.753 695.302 171.36 663.966C158.18 619.983 151.844 574.918 152.353 528.773C152.568 509.584 155.185 490.915 160.205 472.763C160.297 472.424 160.499 472.126 160.778 471.916C161.057 471.706 161.398 471.596 161.746 471.604C182.842 472.123 204.355 475.234 226.283 480.939C285.697 496.389 341.574 521.365 393.914 555.867C428.934 578.955 462.692 607.943 485.706 643.124Z" stroke="#828282" stroke-width="2.93548"/>
<path d="M609.275 682.725C599.422 681.12 590.689 680.186 583.076 679.921C582.98 679.919 582.885 679.893 582.801 679.846C582.716 679.799 582.644 679.732 582.591 679.652C582.538 679.571 582.505 679.479 582.494 679.383C582.484 679.287 582.498 679.189 582.533 679.099C586.447 669.099 591.163 659.554 596.682 650.464C620.313 611.569 654.658 579.176 692.394 553.93C739.283 522.579 790.62 499.438 846.404 484.506C869.751 478.263 893.44 474.32 917.472 472.676C919.761 472.52 921.596 472.495 922.976 472.603C923.202 472.625 923.416 472.717 923.588 472.867C923.759 473.018 923.879 473.218 923.93 473.439C933.676 516.488 932.09 561.328 923.974 605.023C913.504 661.452 892.755 713.914 861.727 762.409C861.654 762.526 861.54 762.612 861.407 762.65C861.274 762.688 861.132 762.675 861.008 762.614C781.182 723.65 697.271 697.021 609.275 682.725Z" stroke="#828282" stroke-width="2.93548"/>
<path d="M532.116 709.789V785.408C532.116 785.674 532.012 785.929 531.825 786.119C531.638 786.308 531.384 786.416 531.118 786.42C503.564 786.939 475.921 790.339 448.191 796.621C400.431 807.453 352.934 824.464 310.957 850.649C310.739 850.783 310.487 850.851 310.233 850.843C309.98 850.836 309.736 850.752 309.533 850.605C290.668 837.229 273.437 821.886 257.839 804.576C250.824 796.797 245.349 789.649 241.724 780.843C241.652 780.667 241.651 780.471 241.719 780.293C241.787 780.116 241.92 779.972 242.09 779.889C258.294 772.208 269.831 766.748 276.7 763.509C312.586 746.571 349.236 732.569 387.602 724.702C435.285 714.927 483.241 709.745 531.471 709.158C531.555 709.156 531.638 709.171 531.717 709.202C531.795 709.233 531.866 709.279 531.926 709.338C531.986 709.397 532.034 709.467 532.067 709.545C532.1 709.622 532.116 709.705 532.116 709.789Z" stroke="#828282" stroke-width="2.93548"/>
<path d="M776.26 850.604C706.396 812.957 631.937 787.154 552.121 786.464C551.962 786.464 551.809 786.401 551.696 786.288C551.583 786.175 551.52 786.022 551.52 785.862V709.686C551.52 709.562 551.569 709.442 551.657 709.354C551.745 709.266 551.865 709.217 551.989 709.217C594.133 709.256 635.856 713.923 677.158 723.219C734.063 736.032 789.396 757.315 843.263 782.017C843.364 782.063 843.455 782.131 843.528 782.216C843.601 782.301 843.654 782.402 843.685 782.51C843.716 782.619 843.723 782.733 843.705 782.846C843.688 782.958 843.647 783.066 843.585 783.162C826.736 809.111 802.621 831.626 778.021 850.458C777.772 850.65 777.473 850.766 777.16 850.792C776.848 850.818 776.535 850.753 776.26 850.604Z" stroke="#828282" stroke-width="2.93548"/>
<path d="M531.191 799.689C497.961 799.425 463.88 806.265 431.575 816.04C395.41 826.989 360.36 841.417 326.426 859.323C326.315 859.383 326.218 859.468 326.145 859.571C326.072 859.675 326.023 859.793 326.003 859.918C325.983 860.043 325.993 860.171 326.03 860.292C326.068 860.413 326.133 860.523 326.221 860.615C330.55 865.194 335.585 869.671 340.869 873.238C365.673 889.989 392.342 902.627 420.875 911.149C421.232 911.258 421.613 911.254 421.968 911.138C422.322 911.023 422.632 910.801 422.857 910.504C445.827 880.063 495.51 871.212 531.044 872.768C531.184 872.776 531.324 872.755 531.455 872.706C531.586 872.657 531.707 872.582 531.808 872.484C531.91 872.387 531.991 872.269 532.046 872.139C532.102 872.008 532.13 871.868 532.13 871.726V800.643C532.13 800.393 532.032 800.152 531.856 799.974C531.68 799.795 531.441 799.693 531.191 799.689Z" stroke="#828282" stroke-width="2.93548"/>
<path d="M626.565 886.769C603.747 876.671 578.961 871.979 552.209 872.693C552.121 872.695 552.034 872.68 551.952 872.647C551.87 872.615 551.796 872.567 551.733 872.505C551.67 872.444 551.62 872.37 551.586 872.289C551.552 872.208 551.534 872.121 551.534 872.033V800.275C551.534 800.184 551.552 800.093 551.589 800.01C551.625 799.926 551.678 799.851 551.745 799.79C551.811 799.729 551.89 799.683 551.975 799.656C552.06 799.628 552.15 799.619 552.239 799.629C582.738 802.252 612.563 807.017 641.712 813.925C676.454 822.159 711.591 836.587 742.253 852.6C748.221 855.721 753.911 859.327 759.322 863.417C759.412 863.487 759.485 863.576 759.535 863.677C759.585 863.779 759.611 863.89 759.611 864.003C759.611 864.115 759.585 864.226 759.535 864.325C759.485 864.425 759.412 864.511 759.322 864.577C730.193 886.73 697.951 902.224 662.598 911.06C662.103 911.184 661.588 911.193 661.089 911.089C660.591 910.985 660.123 910.769 659.721 910.458C648.713 901.857 639.657 892.567 626.565 886.769Z" stroke="#828282" stroke-width="2.93548"/>
<path d="M502.174 886.536C510.354 885.773 520.139 885.484 531.529 885.67C531.685 885.67 531.834 885.732 531.944 885.842C532.054 885.952 532.116 886.101 532.116 886.257V927.735C532.116 927.931 532.039 928.12 531.902 928.26C531.765 928.4 531.578 928.48 531.382 928.484C499.601 929.394 468.734 925.333 438.782 916.302C438.591 916.245 438.417 916.141 438.277 916C438.136 915.859 438.033 915.684 437.978 915.493C437.922 915.301 437.916 915.099 437.959 914.904C438.002 914.71 438.093 914.529 438.225 914.379C453.401 896.693 480.026 888.62 502.174 886.536Z" stroke="#828282" stroke-width="2.93548"/>
<path d="M642.828 918.415C643.009 918.355 643.176 918.256 643.317 918.127C643.459 917.997 643.571 917.839 643.647 917.663C643.723 917.488 643.762 917.298 643.759 917.106C643.757 916.915 643.715 916.726 643.635 916.551C641.208 911.326 637.539 907.212 632.627 904.208C609.393 890.029 579.656 885.142 552.474 885.626C552.219 885.63 551.977 885.734 551.798 885.915C551.62 886.096 551.52 886.34 551.52 886.595V927.574C551.519 927.801 551.598 928.02 551.743 928.195C551.888 928.369 552.089 928.487 552.312 928.528C556.197 929.252 561.466 929.663 568.12 929.761C594.148 930.143 619.05 926.361 642.828 918.415Z" stroke="#828282" stroke-width="2.93548"/>
<path d="M542.69 167.401C516.223 167.354 494.732 187.721 494.688 212.89C494.644 238.06 516.064 258.501 542.53 258.547C568.997 258.593 590.488 238.227 590.532 213.058C590.576 187.888 569.156 167.447 542.69 167.401Z" fill="#FAFA01"/>
<path d="M411.278 173.799C411.404 173.779 411.533 173.787 411.655 173.824C411.778 173.86 411.89 173.924 411.985 174.01C412.079 174.096 412.153 174.202 412.201 174.32C412.249 174.439 412.269 174.567 412.261 174.694L405.29 264.637C405.254 265.048 405.34 265.459 405.535 265.822C405.731 266.184 406.028 266.482 406.39 266.677C459.772 295.885 484.327 353.01 494.117 410.237C498.061 433.281 500.164 456.642 500.429 480.322C500.432 480.576 500.535 480.819 500.713 480.997C500.892 481.176 501.132 481.276 501.383 481.276H525.454C525.66 481.276 525.858 481.192 526.004 481.044C526.149 480.895 526.231 480.694 526.231 480.483V338.333C526.231 337.99 526.369 337.661 526.614 337.419C526.859 337.177 527.191 337.041 527.538 337.041H546.56C546.898 337.041 547.223 337.175 547.463 337.415C547.702 337.654 547.837 337.979 547.837 338.318V480.748C547.837 480.892 547.895 481.03 548 481.132C548.105 481.233 548.246 481.291 548.394 481.291L573.375 481.305C573.466 481.304 573.556 481.284 573.639 481.245C573.721 481.207 573.794 481.152 573.852 481.084C573.911 481.015 573.954 480.935 573.978 480.85C574.002 480.764 574.007 480.674 573.992 480.586C573.904 480.107 574.031 469.382 574.373 448.413C574.696 428.912 576.154 410.536 578.747 393.285C584.471 355.104 601.311 323.039 629.267 297.089C641.821 285.435 655.54 274.853 670.422 265.342C670.761 265.123 671.034 264.82 671.215 264.464C671.396 264.107 671.477 263.711 671.45 263.316L665.285 175.149C665.273 174.964 665.302 174.779 665.37 174.606C665.437 174.434 665.542 174.278 665.677 174.151C665.811 174.023 665.972 173.927 666.148 173.869C666.324 173.81 666.51 173.791 666.694 173.813C698.133 177.409 728.486 192.542 753.952 210.874C797.177 242.005 833.826 281.472 863.504 325.475C874.786 342.198 883.998 359.292 891.141 376.758C893.441 382.365 895.192 388.202 896.396 394.268C896.419 394.396 896.415 394.527 896.383 394.652C896.352 394.778 896.294 394.895 896.213 394.997C896.133 395.098 896.031 395.181 895.916 395.24C895.801 395.3 895.674 395.333 895.545 395.34C836.013 397.835 779.574 412.811 726.226 440.267C699.758 453.888 675.359 469.24 653.03 486.325C611.571 518.048 574.055 554.247 540.483 594.923C540.376 595.053 540.241 595.157 540.089 595.228C539.937 595.299 539.771 595.337 539.603 595.337C539.434 595.337 539.268 595.299 539.116 595.228C538.964 595.157 538.829 595.053 538.722 594.923C500.179 548.939 456.763 506.785 406.831 473.614C361.849 443.741 312.934 422.322 260.086 409.357C234.762 403.143 208.959 398.51 182.677 395.457C182.589 395.447 182.505 395.418 182.429 395.373C182.353 395.328 182.287 395.268 182.236 395.196C182.185 395.124 182.149 395.042 182.132 394.956C182.114 394.869 182.115 394.78 182.134 394.694C188.328 364.737 203.666 336.131 221.983 311.355C249.117 274.652 281.828 242.792 320.116 215.776C337.964 203.183 356.737 192.605 376.434 184.044C387.667 179.151 399.282 175.736 411.278 173.799Z" fill="#F60403"/>
<path d="M503.965 682.739C503.983 682.799 503.987 682.863 503.976 682.925C503.966 682.987 503.941 683.046 503.904 683.097C503.867 683.148 503.819 683.19 503.764 683.219C503.708 683.249 503.646 683.265 503.583 683.267C407.417 685.527 312.292 717.319 227.589 762.378C227.294 762.534 226.96 762.597 226.63 762.561C226.3 762.524 225.99 762.389 225.74 762.173C221.689 758.66 217.975 754.912 214.6 750.93C194.007 726.639 180.753 695.302 171.36 663.966C158.18 619.983 151.844 574.918 152.353 528.773C152.568 509.584 155.185 490.915 160.205 472.763C160.297 472.424 160.499 472.126 160.778 471.916C161.057 471.706 161.398 471.596 161.746 471.604C182.842 472.123 204.355 475.234 226.283 480.939C285.697 496.389 341.574 521.365 393.914 555.867C428.934 578.955 462.692 607.943 485.706 643.124C493.818 655.522 499.904 668.727 503.965 682.739Z" fill="#050505"/>
<path d="M583.076 679.921C582.98 679.919 582.885 679.893 582.801 679.846C582.716 679.799 582.644 679.732 582.591 679.652C582.538 679.571 582.505 679.479 582.494 679.383C582.484 679.287 582.498 679.189 582.533 679.099C586.447 669.099 591.163 659.554 596.682 650.464C620.313 611.569 654.658 579.176 692.394 553.93C739.283 522.579 790.62 499.438 846.404 484.506C869.751 478.263 893.44 474.32 917.472 472.676C919.761 472.52 921.596 472.495 922.976 472.603C923.202 472.625 923.416 472.717 923.588 472.867C923.759 473.018 923.879 473.218 923.93 473.439C933.676 516.488 932.09 561.328 923.974 605.023C913.504 661.452 892.755 713.914 861.727 762.409C861.654 762.526 861.54 762.612 861.407 762.65C861.274 762.688 861.132 762.675 861.008 762.614C781.182 723.65 697.271 697.021 609.275 682.725C599.422 681.12 590.689 680.186 583.076 679.921Z" fill="#050505"/>
<path d="M531.118 786.42C503.564 786.939 475.921 790.339 448.191 796.621C400.431 807.453 352.934 824.464 310.957 850.649C310.739 850.783 310.487 850.851 310.233 850.843C309.98 850.836 309.736 850.752 309.533 850.605C290.668 837.229 273.437 821.886 257.839 804.576C250.824 796.797 245.349 789.649 241.724 780.843C241.652 780.667 241.651 780.471 241.719 780.293C241.787 780.116 241.92 779.972 242.09 779.889C258.294 772.208 269.831 766.748 276.7 763.509C312.586 746.571 349.236 732.569 387.602 724.702C435.284 714.927 483.241 709.745 531.471 709.158C531.555 709.156 531.638 709.171 531.717 709.202C531.795 709.233 531.866 709.279 531.926 709.338C531.986 709.397 532.034 709.467 532.067 709.545C532.1 709.622 532.116 709.705 532.116 709.789V785.408C532.116 785.674 532.012 785.929 531.825 786.119C531.638 786.308 531.384 786.416 531.118 786.42Z" fill="#050505"/>
<path d="M552.121 786.464C551.962 786.464 551.809 786.401 551.696 786.288C551.583 786.175 551.52 786.022 551.52 785.862V709.686C551.52 709.562 551.569 709.442 551.657 709.354C551.745 709.266 551.865 709.217 551.989 709.217C594.133 709.256 635.856 713.923 677.158 723.219C734.063 736.032 789.396 757.315 843.263 782.017C843.364 782.063 843.455 782.131 843.528 782.216C843.601 782.301 843.654 782.402 843.685 782.51C843.716 782.619 843.723 782.733 843.705 782.846C843.688 782.958 843.647 783.066 843.585 783.162C826.736 809.111 802.621 831.626 778.021 850.458C777.772 850.65 777.473 850.766 777.16 850.792C776.848 850.818 776.535 850.753 776.26 850.604C706.396 812.957 631.937 787.154 552.121 786.464Z" fill="#050505"/>
<path d="M532.13 800.643V871.726C532.13 871.868 532.102 872.008 532.046 872.139C531.991 872.269 531.91 872.387 531.808 872.484C531.707 872.582 531.586 872.657 531.455 872.706C531.324 872.755 531.184 872.776 531.044 872.768C495.51 871.212 445.827 880.063 422.857 910.504C422.632 910.801 422.322 911.023 421.968 911.138C421.613 911.254 421.232 911.258 420.875 911.149C392.342 902.627 365.673 889.989 340.869 873.238C335.585 869.671 330.55 865.194 326.221 860.615C326.133 860.523 326.068 860.413 326.03 860.292C325.993 860.171 325.983 860.043 326.003 859.918C326.023 859.793 326.072 859.675 326.145 859.571C326.218 859.468 326.315 859.383 326.426 859.323C360.36 841.417 395.41 826.989 431.575 816.04C463.88 806.265 497.961 799.425 531.191 799.689C531.441 799.693 531.68 799.795 531.856 799.974C532.032 800.152 532.13 800.393 532.13 800.643Z" fill="#050505"/>
<path d="M552.209 872.693C552.121 872.695 552.034 872.68 551.952 872.647C551.87 872.615 551.796 872.567 551.733 872.505C551.67 872.444 551.62 872.37 551.586 872.289C551.552 872.208 551.534 872.121 551.534 872.033V800.275C551.534 800.184 551.552 800.093 551.589 800.01C551.625 799.926 551.678 799.851 551.745 799.79C551.811 799.729 551.89 799.683 551.975 799.656C552.06 799.628 552.15 799.619 552.239 799.629C582.738 802.252 612.563 807.017 641.712 813.925C676.454 822.159 711.591 836.587 742.253 852.6C748.221 855.721 753.911 859.327 759.322 863.417C759.412 863.487 759.485 863.576 759.535 863.677C759.585 863.779 759.611 863.89 759.611 864.003C759.611 864.115 759.585 864.226 759.535 864.325C759.485 864.425 759.412 864.511 759.322 864.577C730.193 886.73 697.951 902.224 662.598 911.06C662.103 911.184 661.588 911.193 661.089 911.089C660.591 910.985 660.123 910.769 659.721 910.458C648.713 901.857 639.657 892.567 626.565 886.769C603.747 876.671 578.961 871.979 552.209 872.693Z" fill="#050505"/>
<path d="M531.529 885.67C531.685 885.67 531.834 885.732 531.944 885.842C532.054 885.952 532.116 886.101 532.116 886.257V927.735C532.116 927.931 532.039 928.12 531.902 928.26C531.765 928.4 531.578 928.48 531.382 928.484C499.601 929.394 468.734 925.333 438.782 916.302C438.591 916.245 438.417 916.141 438.277 916C438.136 915.859 438.033 915.684 437.978 915.493C437.922 915.301 437.916 915.099 437.959 914.904C438.002 914.71 438.093 914.529 438.225 914.379C453.401 896.693 480.026 888.62 502.174 886.536C510.354 885.773 520.139 885.484 531.529 885.67Z" fill="#050505"/>
<path d="M642.828 918.415C619.05 926.361 594.148 930.143 568.12 929.761C561.466 929.663 556.197 929.252 552.312 928.528C552.089 928.487 551.888 928.369 551.743 928.195C551.598 928.02 551.519 927.801 551.52 927.574V886.595C551.52 886.34 551.62 886.096 551.798 885.915C551.977 885.734 552.219 885.63 552.474 885.626C579.656 885.142 609.393 890.029 632.627 904.208C637.539 907.212 641.208 911.326 643.635 916.551C643.715 916.726 643.757 916.915 643.759 917.106C643.762 917.298 643.723 917.488 643.647 917.663C643.571 917.839 643.459 917.997 643.317 918.127C643.176 918.256 643.009 918.355 642.828 918.415Z" fill="#050505"/>
</svg>
