<svg width="1080" height="1080" viewBox="0 0 1080 1080" fill="none" xmlns="http://www.w3.org/2000/svg">
<g clip-path="url(#clip0_94_626)">
<path d="M615.883 535.94C630.916 535.719 644.11 535.728 655.463 535.966C659.126 536.042 663.681 536.341 669.128 536.864C667.148 551.714 661.412 564.733 651.919 575.921C650.215 577.935 649.01 579.645 648.305 581.051C635.501 606.647 668.923 605.533 682.805 603.888C689.472 603.098 695.839 601.868 701.952 601.575C714.193 600.98 726.526 601.317 738.95 602.588C756.974 604.423 775.559 607.211 794.705 610.95C799.517 611.893 818.874 614.309 813.176 623.76C812.309 625.201 810.57 627.018 809.129 628.146C805.02 631.363 800.03 634.387 794.158 637.221C784.221 642.014 774.094 646.177 763.832 649.294C759.396 650.638 754.979 652.129 751.716 654.94C742.188 663.149 767.682 669.606 771.812 670.651C791.238 675.571 802.373 691.894 804.355 711.212C804.364 711.313 804.336 711.415 804.275 711.496C804.213 711.576 804.123 711.63 804.024 711.645C778.81 715.801 752.373 714.252 728.071 706.145C728.052 706.141 728.032 706.141 728.014 706.148C727.996 706.155 727.98 706.167 727.969 706.183C727.958 706.199 727.952 706.219 727.952 706.238C727.952 706.257 727.957 706.276 727.968 706.292C738.034 718.788 743.677 733.108 744.897 749.25C745.683 759.6 744.841 769.283 742.372 778.3C742.361 778.343 742.341 778.384 742.313 778.419C742.285 778.454 742.251 778.483 742.211 778.505C742.172 778.526 742.129 778.539 742.084 778.544C742.04 778.548 741.994 778.543 741.952 778.529C723.36 772.761 705.189 765.419 688.834 755.017C671.632 744.08 658.21 729.128 655.297 708.287C654.354 701.552 653.833 697.853 653.736 697.19C653.309 694.233 651.99 691.186 648.816 690.377C634.852 686.827 632.965 703.302 632.754 712.601C632.461 725.584 633.959 737.688 635.603 751.614C636.045 755.37 635.867 760.135 635.068 765.91C632.977 780.994 627.679 794.69 619.172 807C615.374 812.494 609.172 818.581 602.798 820.589C591.804 824.049 584.047 815.834 578.904 806.79C564.372 781.257 577.859 753.354 589.803 730.014C591.66 726.386 592.822 723.196 593.289 720.447C593.761 717.688 591.568 716.904 589.108 717C578.675 717.408 573.467 723.787 569.668 732.672C568.011 736.547 566.399 741.04 564.831 746.152C559.261 764.299 555.637 775.91 553.958 780.983C543.028 814.036 506.494 818.676 477.131 813.425C477.094 813.418 477.059 813.403 477.03 813.381C477 813.358 476.976 813.328 476.96 813.295C476.945 813.261 476.938 813.223 476.94 813.186C476.942 813.149 476.953 813.113 476.972 813.081C482.857 803.168 487.131 795.946 489.795 791.417C491.087 789.211 492.199 786.719 493.129 783.94C496.851 772.804 497.977 761.416 496.507 749.778C496.106 746.629 494.563 739.645 491.038 738.612C489.449 738.153 488.073 738.565 486.909 739.848C482.579 744.616 476.838 748.302 469.687 750.907C454.639 756.388 432.032 758.115 418.565 747.343C416.062 745.342 414.439 744.148 413.696 743.761C410.143 741.922 407.037 740.687 404.377 740.058C395.217 737.891 385.733 736.638 375.926 736.299C362.627 735.844 348.861 736.22 334.631 737.426C334.583 737.43 334.534 737.424 334.489 737.407C334.443 737.39 334.401 737.363 334.367 737.329C334.332 737.294 334.305 737.252 334.288 737.207C334.272 737.161 334.264 737.112 334.268 737.063C335.103 725.565 338.309 713.398 345.122 704.182C355.326 690.364 372.344 684.781 389.604 686.738C401.42 688.083 413.479 688.319 424.995 687.764C429.878 687.535 444.913 686.623 444.511 678.853C444.339 675.45 439.712 672.098 436.895 670.676C436.708 670.585 436.497 670.552 436.289 670.581C411.955 673.876 387.271 673.742 363.204 668.93C326.977 661.69 293.618 642.735 271.731 613.162C269.768 610.51 268.126 607.99 266.804 605.602C266.788 605.574 266.779 605.541 266.778 605.508C266.776 605.475 266.783 605.442 266.797 605.412C266.812 605.381 266.833 605.354 266.86 605.333C266.886 605.312 266.918 605.298 266.952 605.291C289.633 600.868 312.465 598.683 335.448 598.738C354.836 598.783 374.524 601.032 392.669 607.552C401.945 610.884 410.209 615.764 417.462 622.193C428.852 632.289 443.281 641.193 458.151 639.332C467.08 638.216 474.952 632.875 479.866 625.526C480.443 624.664 481.11 623.714 481.867 622.677C490.755 610.534 500.569 599.433 511.306 589.376C526.883 574.787 547.546 560.305 569.675 559.942C575.896 559.84 581.358 561.135 588.164 563.639C597.107 566.928 610.402 569.847 615.163 558.585C617.999 551.867 617.183 543.04 615.883 535.94ZM634.054 608.955C627.613 603.21 620.204 601.406 611.829 603.544C607.547 604.636 603.191 606.229 598.764 608.324C584.402 615.117 577.194 618.525 577.139 618.548C563.079 625.206 549.05 630.82 535.054 635.392C526.977 638.031 522.101 639.729 520.427 640.485C509.739 645.329 500.624 650.899 493.543 659.714C483.703 671.964 481.523 687.662 485.009 702.914C486.717 710.392 489.12 716.91 492.217 722.467C492.276 722.573 492.371 722.653 492.484 722.693C492.597 722.733 492.72 722.73 492.829 722.684C502.727 718.733 512.3 715.437 522.625 714.66C525.927 714.411 530.567 714.705 533.894 714.851C539.566 715.098 545.381 714.284 551.338 712.41C558.557 710.141 566.511 706.844 575.201 702.518C591.988 694.169 609.956 684.385 624.71 672.365C636.011 663.155 648.949 649.064 648.567 633.474C648.456 629 647.45 625.259 645.546 622.251C642.614 617.606 638.783 613.174 634.054 608.955ZM479.356 259.994C489.955 257.585 497.476 265.762 502.186 274.418C516.144 300.026 503.422 327.146 491.326 350.492C490.166 352.723 487.954 357.325 487.655 360.633C487.393 363.513 489.464 364.023 491.969 363.915C502.836 363.437 508.031 356.356 511.734 347.146C513.48 342.795 515.203 337.824 516.903 332.232C518.743 326.182 521.292 317.904 524.551 307.4C527.041 299.378 529.154 293.873 530.892 290.886C536.798 280.736 545.583 273.702 557.246 269.784C572.027 264.825 588.573 264.749 603.85 267.521C603.88 267.527 603.909 267.54 603.933 267.559C603.957 267.578 603.976 267.603 603.989 267.632C604.001 267.66 604.007 267.691 604.005 267.721C604.003 267.752 603.994 267.782 603.978 267.808C596.963 279.654 593.381 285.695 593.232 285.934C588.082 294.245 585.749 301.932 584.405 312.059C583.508 318.824 583.58 325.559 584.621 332.263C585.068 335.157 586.725 341.651 589.988 342.359C591.534 342.695 592.881 342.255 594.029 341.04C598.609 336.187 604.201 332.567 610.804 330.179C626.464 324.507 649.281 322.659 662.991 334.061C667.56 337.86 672.576 339.989 678.51 341.346C686.209 343.114 694.599 344.18 703.679 344.546C717.828 345.119 732.09 344.76 746.464 343.468C746.494 343.467 746.524 343.471 746.552 343.481C746.58 343.492 746.605 343.509 746.626 343.53C746.647 343.551 746.664 343.576 746.674 343.604C746.685 343.632 746.69 343.661 746.688 343.691C745.655 357.407 741.513 371.978 731.398 381.863C720.92 392.105 705.916 395.782 691.429 394.202C680.001 392.953 668.408 392.615 656.993 393.112C653.135 393.278 649.202 393.747 645.196 394.52C639.676 395.591 632.786 400.072 638.561 406.19C640.052 407.775 641.862 409.125 643.991 410.238C644.206 410.35 644.451 410.392 644.692 410.359C698.937 402.87 756.42 413.099 796.465 452.972C803.234 459.709 809.652 467.325 814.12 475.382C814.134 475.408 814.142 475.438 814.143 475.468C814.144 475.499 814.138 475.529 814.125 475.556C814.112 475.584 814.092 475.607 814.068 475.626C814.044 475.644 814.016 475.656 813.986 475.662C794.665 479.363 775.264 481.509 755.783 482.099C733.705 482.769 711.021 481.118 690.034 474.024C679.725 470.536 670.422 465.069 662.123 457.625C647.095 444.138 624.385 433.457 606.368 449.231C604.693 450.693 602.388 453.491 599.453 457.625C592.714 467.113 584.689 476.567 575.379 485.987C559.063 502.488 536.801 519.812 512.786 520.953C505.985 521.278 499.713 519.901 492.951 517.339C483.288 513.687 469.643 511.022 465.206 523.699C463.452 529.686 463.618 536.067 464.618 542.27C465.956 550.598 468.194 558.839 471.329 566.993C471.405 567.181 471.429 567.385 471.4 567.586C469.876 579.485 467.498 591.429 463.394 601.672C461.042 607.529 457.282 614.017 451.998 617.007C443.248 621.959 433.948 615.865 427.549 609.339C425.952 607.703 424.603 605.754 423.502 603.494C411.074 577.898 406.039 550.02 417.607 523.181H417.609C420.905 515.564 425.367 508.788 430.994 502.851C431.3 502.532 432.126 500.922 433.473 498.02C436.271 492.004 436.825 484.081 429.91 480.225C427.305 478.777 424.805 477.84 422.409 477.415C410.567 475.318 398.169 476.765 386.257 478.638C382.854 479.174 377.653 479.508 370.656 479.639C360.713 479.826 349.344 479.201 336.55 477.765C319.779 475.887 302.431 473.183 284.504 469.652C277.882 468.352 257.978 464.999 270.871 453.629C276.085 449.033 282.853 445.516 289.119 442.571C298.781 438.029 309.295 433.99 320.661 430.455C323.946 429.435 326.741 427.99 329.048 426.121C334.58 421.64 328.66 417.58 324.625 415.597C319.756 413.201 314.116 411.589 308.571 410.135C289.654 405.164 278.22 388.561 276.588 369.588C276.583 369.524 276.601 369.46 276.64 369.409C276.679 369.358 276.735 369.324 276.798 369.313C302.573 365.034 327.848 366.802 352.624 374.616C352.65 374.622 352.676 374.62 352.701 374.611C352.725 374.602 352.746 374.585 352.76 374.563C352.774 374.542 352.782 374.517 352.782 374.491C352.781 374.465 352.773 374.44 352.758 374.419C345.169 364.761 340.179 354.431 337.786 343.43C334.812 329.74 335.063 316.096 338.538 302.5C338.546 302.471 338.559 302.443 338.578 302.419C338.596 302.395 338.619 302.375 338.645 302.36C338.671 302.345 338.7 302.335 338.73 302.332C338.76 302.328 338.791 302.331 338.82 302.34C355.372 307.464 372.083 314.131 386.902 322.704C404.441 332.857 420.662 347.573 424.869 368.242C425.608 371.875 426.216 375.984 426.692 380.569C427.138 384.858 427.896 389.734 432.803 390.754C446.372 393.571 448.075 376.853 448.196 367.777C448.368 355.374 447.201 345.093 445.512 331.04C444.786 324.993 445.115 318.278 446.5 310.893C449.279 296.075 455.29 281.55 464.946 269.937C468.496 265.673 474.034 261.205 479.356 259.994ZM631.766 462.675C639.656 460.037 647.91 466.098 653.225 471.401C654.793 472.965 656.208 475.015 657.47 477.551C666.833 496.379 671.753 516.443 669.127 536.857C663.68 536.334 659.125 536.035 655.462 535.959C644.109 535.721 630.915 535.712 615.882 535.933C614.429 528.396 612.341 521.047 609.618 513.887C609.529 513.657 609.497 513.41 609.522 513.167C609.798 510.367 610.629 505.398 612.014 498.259C613.548 490.335 615.779 483.112 618.706 476.59C621.351 470.7 625.507 464.766 631.766 462.675ZM588.447 358.227C588.334 358.187 588.211 358.19 588.101 358.236C578.203 362.188 568.63 365.489 558.305 366.266C555.004 366.515 550.363 366.221 547.036 366.075C541.364 365.828 535.549 366.642 529.592 368.516C522.373 370.785 514.419 374.082 505.73 378.408C488.942 386.757 470.975 396.541 456.22 408.561C444.92 417.771 431.981 431.869 432.364 447.459C432.474 451.933 433.482 455.675 435.385 458.683C438.317 463.327 442.147 467.759 446.876 471.978C453.318 477.723 460.726 479.527 469.101 477.389C473.384 476.297 477.739 474.704 482.166 472.609C496.566 465.794 503.775 462.384 503.792 462.38C517.857 455.721 531.887 450.106 545.883 445.534C553.96 442.895 558.836 441.198 560.51 440.442C571.199 435.598 580.313 430.027 587.394 421.213C597.235 408.963 599.414 393.265 595.928 378.007C594.22 370.528 591.815 364.01 588.713 358.453C588.655 358.348 588.559 358.267 588.447 358.227Z" fill="url(#paint0_linear_94_626)"/>
<path d="M840.149 261.415C871.878 295.494 897.562 334.733 916.096 377.446C938.281 428.563 949.799 483.672 949.946 539.398C949.984 554.815 949.151 570.245 947.454 585.572H947.457C947.067 589.097 946.627 592.63 946.143 596.145C938.04 655.195 917.144 711.765 884.913 761.902C869.021 786.623 850.512 809.563 829.706 830.327C829.703 830.327 829.701 830.326 829.698 830.326C798.765 861.191 763.092 886.908 724.032 906.501C670.045 933.576 610.74 948.377 550.366 949.842C491.771 951.262 433.554 940.088 379.65 917.076C331.484 896.51 287.711 866.899 250.701 829.847C265.237 829.023 279.792 828.779 294.366 829.115C359.829 884.857 441.971 916.839 527.905 919.535C623.087 922.518 714.657 890.497 787.124 828.591C787.127 828.591 787.13 828.591 787.134 828.591C858.846 766.998 904.823 681.83 916.818 587.963H916.816C921.838 546.96 920.42 506.543 912.559 466.713C896.938 387.516 856.497 316.107 797.128 261.199C810.712 260.234 824.4 259.612 838.192 259.331C838.846 260.023 839.5 260.72 840.149 261.415ZM280.28 224.243C296.944 223.074 313.507 223.28 329.968 224.861C251.312 277.614 194.88 357.457 172.197 449.286C161.458 492.784 158.546 537.252 163.463 582.691H163.469C174.253 678.778 221.003 766.242 294.382 829.098C279.808 828.762 265.252 829.006 250.717 829.83C207.001 786.057 173.77 732.952 153.519 674.501C143.383 645.243 136.596 614.932 133.292 584.15L133.287 584.151C130.447 557.691 130.195 531.019 132.535 504.513C137.499 448.195 154.072 393.513 181.21 343.912C206.293 298.065 239.922 257.443 280.28 224.243ZM516.273 131.675C572.783 128.333 629.373 136.744 682.469 156.373C739.481 177.456 791.085 210.966 833.535 254.474C835.1 256.073 836.658 257.695 838.194 259.325C824.402 259.605 810.714 260.227 797.13 261.192C764.14 230.985 727.318 207.384 686.663 190.388C623.444 163.951 553.736 155.22 485.82 165.029C429.695 173.132 377.742 193.072 329.962 224.85C313.501 223.269 296.938 223.063 280.273 224.232C300.178 207.854 321.582 193.395 344.2 181.045C397.217 152.098 455.979 135.238 516.273 131.675Z" fill="url(#paint1_linear_94_626)"/>
</g>
<defs>
<linearGradient id="paint0_linear_94_626" x1="540.417" y1="259.566" x2="540.417" y2="821.397" gradientUnits="userSpaceOnUse">
<stop stop-color="#E4C875"/>
<stop offset="1" stop-color="#B3923D"/>
</linearGradient>
<linearGradient id="paint1_linear_94_626" x1="540.449" y1="130.961" x2="540.449" y2="949.962" gradientUnits="userSpaceOnUse">
<stop stop-color="#E4C875"/>
<stop offset="1" stop-color="#B3923D"/>
</linearGradient>
<clipPath id="clip0_94_626">
<rect width="819" height="819" fill="white" transform="translate(131 131)"/>
</clipPath>
</defs>
</svg>
