<svg width="1080" height="1080" viewBox="0 0 1080 1080" fill="none" xmlns="http://www.w3.org/2000/svg">
<rect width="1080" height="1080" fill="#1E1E1E"/>
<path d="M567.266 578.086C573.576 566.985 588.459 531.586 595.198 524.922C596.275 523.854 597.284 523.234 598.753 522.854C605.267 521.176 622.945 522.2 630.276 522.217C627.393 530.912 628.422 548.709 628.43 558.579L628.49 615.737C620.21 615.175 608.25 615.536 599.698 615.558L599.71 569.204L599.682 548.659C596.339 552.903 594.1 558.861 591.526 563.82L571.498 602.807C569.753 606.148 567.467 610.855 565.272 613.981C564.784 614.68 563.951 614.597 563.254 614.573C561.216 612.744 557.092 604.793 555.487 602.108C544.516 583.748 533.978 565.08 522.862 546.801C522.53 554.074 522.754 563.515 522.75 570.912L522.747 615.694C518.486 615.417 512.675 615.545 508.299 615.512L508.376 561.425C508.382 548.894 509.687 534.047 505.561 522.296C511.7 522.198 532.653 520.458 536.392 525.809C547.871 542.227 556.248 561.284 567.266 578.086Z" fill="white"/>
<path d="M288.73 521.955C301.193 521.741 314.314 522.18 326.002 525.835C342.137 530.882 347.084 555.354 332.8 564.887C327.967 568.112 324.168 568.834 319.116 571.093C329.891 572.568 333.463 578.15 337.597 587.472C342.348 598.184 347.353 606.29 356.722 613.574C349.982 615.514 342.46 616.962 335.668 616.248C314.129 613.982 312.447 595.874 304.215 580.355C302.346 576.831 298.78 574.382 296.021 571.042C299 570.217 301.079 569.667 303.948 568.422C305.182 567.673 305.943 566.791 306.957 565.789C313.969 558.863 316.293 543.235 308.475 536.143C302.601 530.814 289.383 531.549 281.554 532.014C281.251 559.504 281.317 588.062 281.577 615.561L256.511 615.492L256.564 561.51C256.565 551.928 257.834 531.013 253.608 523.094C265.156 522.142 277.119 522.109 288.73 521.955Z" fill="white"/>
<path d="M374.057 522.31C380.819 522.205 390.323 521.472 396.737 523.163C406.604 525.959 405.208 535.828 405.28 543.725C405.494 567.18 399.564 611.174 436.526 606.334C459.14 603.372 458.828 580.055 458.797 562.499L458.745 541.113C458.732 535.991 458.359 530.724 459.874 525.862C465.051 521.357 468.741 522.119 475.345 522.447C474.179 525.681 473.705 527.442 473.625 530.867L473.7 555.335C473.765 568.913 474.716 584.797 468.439 597.19C464.403 605.158 456.64 611.832 447.907 614.39C433.437 618.628 409.208 618.323 395.456 611.617C389.511 608.718 382.516 602.203 380.163 595.881C374.398 579.58 377.15 561.11 376.597 544.056C376.287 534.53 377.03 531.75 374.057 522.31Z" fill="white"/>
<path d="M686.231 522.256C690.943 522.206 710.47 520.783 713.769 524.794C716.316 527.894 719.879 537.08 721.845 541.342L739.467 580.199C742.497 586.821 745.689 593.372 748.599 600.085C750.729 604.992 753.937 610.513 755.514 615.574C750.489 615.554 745.464 615.562 740.439 615.598C732.34 615.619 724.027 616.509 719.319 608.867C713.846 599.983 709.625 594.298 699.451 590.472C697.89 589.885 694.218 589.113 693.049 588.225C694.455 586.289 699.744 586.503 702.366 585.375C709.854 582.157 707.499 576.639 705.125 570.713C701.638 562.827 697.478 551.122 694.391 542.931C693.057 545.021 691.764 548.831 690.727 551.238L682.755 569.859C677.186 583.067 668.169 602.361 663.741 615.679L649.15 615.421C651.717 610.714 654.92 602.977 657.046 598.089L666.567 576.643L676.677 553.484C680.025 545.872 687.728 530.51 686.231 522.256Z" fill="white"/>
<path d="M808.194 560.282C816.878 552.516 825.166 535.721 833.29 526.542C835.372 524.189 838.151 522.244 841.442 522.297C843.256 522.326 848.785 521.731 849.886 522.721C849.138 524.837 846.799 526.853 845.574 528.809C839.997 537.728 833.162 546.428 827.457 555.198C825.01 560.276 820.246 564.068 817.935 569.254C815.577 574.542 816.866 607.543 816.898 615.596C806.736 615.355 796.134 615.509 785.936 615.521L785.988 587.263C786.024 567.866 786.28 571.51 775.982 554.911L760.267 529.619C759.25 528.014 755.955 523.785 756.051 522.313C766.265 521.872 784.118 520.039 790.224 529.606C796.462 539.381 801.495 550.859 808.194 560.282Z" fill="white"/>
<path d="M548.733 437.634C551.439 437.52 554.506 437.577 557.237 437.565C557.245 442.232 558.018 473.814 556.692 475.544C554.394 475.277 551.107 475.39 548.717 475.403L548.729 459.022C543.66 458.862 538.587 458.864 533.522 459.028C533.43 464.555 533.442 470.083 533.562 475.609C530.19 475.318 528.171 475.371 524.835 475.495C524.543 463.338 524.816 449.899 524.811 437.643C527.536 437.5 530.811 437.579 533.578 437.575C533.406 442.94 533.482 448.177 533.546 453.538C538.422 453.685 543.736 453.593 548.648 453.604C548.861 448.635 548.721 442.678 548.733 437.634Z" fill="white"/>
<path d="M582.105 437.678C590.378 437.235 601.264 437.519 609.692 437.625L609.64 443.268C603.663 443.012 596.976 443.152 590.946 443.154L590.922 453.56C596.035 453.699 601.625 453.591 606.774 453.596L606.826 459.159C603.61 458.724 594.173 458.806 590.938 459.019L590.914 469.994L609.724 470.085L609.72 475.536C603.458 474.924 589.096 475.366 582.246 475.394C582.418 465.795 582.27 456.144 582.35 446.541C582.374 443.616 582.382 440.582 582.105 437.678Z" fill="white"/>
<path d="M471.29 437.605C481.907 437.532 492.525 437.518 503.142 437.562L503.047 443.314C499.388 443.046 495.358 443.19 491.665 443.238L491.648 464.837L491.676 475.614C488.689 475.274 485.894 475.329 482.91 475.587C482.465 466.106 482.954 453.198 482.821 443.314C479.052 443.086 475.209 443.166 471.43 443.189L471.29 437.605Z" fill="white"/>
<path d="M162.428 522.229C167.54 522.187 187.421 521.24 189.127 524.182C195.908 535.874 204.367 556.093 209.903 568.321C216.981 584.187 224.264 599.961 231.748 615.639C222.742 615.422 203.397 617.807 197.325 611.211C191.704 605.104 188.306 596.337 179.948 592.442C178.368 591.634 169.726 588.769 169.399 588.003C172.915 584.678 183.133 587.12 183.222 579.246C183.252 576.501 171.525 544.903 170.538 544.025C170.475 543.969 170.409 543.918 170.344 543.865C167.7 545.782 143.374 607.128 139.163 615.55L130 615.466V604.279C132.839 599.087 135.497 592.349 137.851 586.888L147.182 565.701C151.847 554.937 157.064 543.904 161.014 532.81C162.393 528.937 162.671 526.269 162.428 522.229Z" fill="white"/>
<path d="M849.241 615.422C852.084 610.431 853.91 605.116 856.256 599.925C858.618 594.739 860.861 589.841 863.123 584.577C871.123 565.983 880.424 547.588 886.53 528.277C886.998 526.8 886.201 523.237 886.814 522.477C891.687 521.586 904.767 522.28 909.852 522.721C915.466 523.208 919.458 535.841 921.916 541.172L941.968 585.027C944.558 590.615 946.86 597.06 950 602.371V615.573C943.801 615.463 937.603 615.8 931.273 615.502C918.249 615.243 917.464 600.693 907.906 595.051C903.859 592.662 900.451 590.135 895.606 589.285C894.814 589.146 894.125 588.985 893.584 588.353C895.018 585.414 911.198 586.661 907.41 576.778C903.066 565.455 898.902 553.84 894.341 542.612C886.317 562.371 877.381 581.741 869.445 601.531C867.639 606.036 865.557 611.618 863.091 615.736C859.203 615.429 853.301 615.513 849.241 615.422Z" fill="white"/>
</svg>
