<svg width="1080" height="1080" viewBox="0 0 1080 1080" fill="none" xmlns="http://www.w3.org/2000/svg">
<path d="M382.488 461.477C382.488 431.52 406.773 407.235 436.731 407.235H643.08C673.037 407.235 697.322 382.95 697.322 352.992V308.737C697.322 278.779 673.037 254.494 643.08 254.494H406.597C376.64 254.494 352.355 278.779 352.355 308.737V322.857C352.355 352.814 328.07 377.099 298.112 377.099H184.242C154.285 377.099 130 401.384 130 431.342V771.801C130 801.758 154.285 826.043 184.242 826.043H328.246C358.203 826.043 382.488 801.758 382.488 771.801V461.477ZM950 616.42C950 586.463 925.715 562.178 895.757 562.178H751.565C721.607 562.178 697.322 586.463 697.322 616.42V771.801C697.322 801.758 721.607 826.043 751.565 826.043H895.757C925.715 826.043 950 801.758 950 771.801V616.42Z" fill="#F4FF5D"/>
</svg>
