<svg width="1080" height="1080" viewBox="0 0 1080 1080" fill="none" xmlns="http://www.w3.org/2000/svg">
<path d="M918.093 149C922.255 149.481 925.538 148.922 927.37 152.036C931.547 159.142 935.062 174.219 936.85 182.191C950.957 244.981 953.742 309.776 945.069 373.54C927.276 501.296 853.699 628.174 751.991 708.792C747.533 712.328 742.98 715.32 742.322 720.405C831.955 734.503 885.887 791.787 899.304 881.499C903.003 898.884 874.18 901.608 861.645 907.028C782.147 941.402 680.263 934.172 609.834 882.07C595.467 871.442 583.396 855.621 568.825 844.232C565.313 845.947 550.926 863.496 547.275 867.603C517.229 901.387 478.572 924.389 433.299 930.722C386.597 937.252 355.787 917.937 320.181 891.588C314.779 887.591 304.143 871.692 300.426 865.139C251.693 779.196 281.524 643.931 306.166 553.157C310.664 536.589 317.891 518.009 323.509 501.849C326.803 492.366 333.892 485.25 333.034 477.598C310.842 465.779 216.21 498.982 194.385 515.973C188.891 520.251 182.266 524.313 175.875 527.656C161.585 538.388 146.209 552.67 132.658 564.691L130.232 562.807C128.583 496.852 134.897 432.083 176.13 377.868C228.929 308.447 331.635 329.255 411.628 314.117C545.65 288.752 593.081 258.889 670.513 151.662C672.79 153.957 673.641 157.409 674.338 160.577C688.531 225.146 685.428 304.404 651.154 362.045C609.732 431.719 593.978 448.917 515.874 469.416C505.794 519.799 471.367 572.608 479.443 627.696C485.808 671.095 527.54 667.455 554.199 644.477C629.061 579.948 672.123 480.406 710.598 391.411C760.683 266.121 766.023 180.964 918.093 149Z" fill="url(#paint0_linear_94_894)"/>
<defs>
<linearGradient id="paint0_linear_94_894" x1="540" y1="149" x2="540" y2="932" gradientUnits="userSpaceOnUse">
<stop stop-color="#3848F6"/>
<stop offset="1" stop-color="#6A43FA"/>
</linearGradient>
</defs>
</svg>
