<svg width="1080" height="1080" viewBox="0 0 1080 1080" fill="none" xmlns="http://www.w3.org/2000/svg">
<rect width="1080" height="1080" fill="#1E1E1E"/>
<path d="M207.105 356.261C240.084 353.371 283.932 356.472 317.935 355.628C341.599 356.017 365.2 355.568 388.848 355.065C393.645 354.962 400.479 355.507 402.199 360.34C401.165 367.229 338.882 437.982 330.984 451.893C321.699 468.249 285.288 507.571 289.033 525.035C296.902 561.726 324.245 557.205 351.001 551.929C353.723 545.842 361.083 536.439 365.49 531.199C399.695 490.532 429.779 447.258 461.444 404.774C473.661 388.383 487.858 373.499 499.674 356.489C524.308 354.28 563.712 355.592 589.934 355.442C613.112 355.311 654.001 354.321 675.562 356.563C678.01 366.217 626.193 430.302 617.073 433.491C616.496 435.042 614.792 439.677 613.916 440.875C581.139 485.759 546.743 529.143 512.319 572.762C510.449 575.131 508.623 580.794 507.95 583.822C495.209 590.842 453.795 656.99 435.812 668.238C431.599 682.549 421.748 691.595 415.085 705.497C410.672 707.92 398.887 713.574 395.62 716.526C381.568 729.232 333.344 728.535 320.588 715.637C295.883 690.658 264.45 651.901 245.817 621.509C243.525 620.247 240.184 617.981 237.866 616.518C235.221 601.373 211.598 584.218 202.792 571.163C197.066 561.993 192.535 550.262 186.046 541.758C184.159 540.981 175.923 538.473 175.428 536.738C168.476 512.361 145.463 503.396 136.04 477.268C121.955 438.211 133.328 405.831 161.586 377.31C167.91 370.929 175.629 369.752 178.91 361.495C185.521 358.761 199.491 357.328 207.105 356.261Z" fill="white"/>
<path d="M780.447 356.403C796.307 354.894 940.948 354.143 949.779 356.945L950 360.21C947.326 366.851 935.738 382.041 929.01 385.805C927.839 388.942 926.5 392.013 924.999 395.007C918.197 408.357 903.701 421.39 895.154 433.73C890.823 438.453 887.322 447.063 880.578 448.468C874.247 449.787 875.813 458.704 872.335 462.638C854.98 482.275 822.374 535.129 801.14 547.261C799.854 551.554 798.397 556.172 796.088 560.043C782.447 582.922 712.427 674.177 695.922 686.605C693.646 691.06 690.812 698.842 688.87 703.765C671.376 710.708 672.115 723.369 643.477 725.575C618.515 727.498 597.482 721.792 578.784 703.349C574.149 698.774 577.835 695.929 567.799 687.538L567.315 687.138C564.966 675.332 559.511 651.503 564.149 640.795C584.872 592.953 629.394 548.929 660.229 507.953C680.224 481.384 694.259 459.08 715.182 434.185C724.048 423.636 769.526 366.525 773.462 358.408L773.678 357.951L780.447 356.403Z" fill="white"/>
</svg>
