<svg width="1080" height="1080" viewBox="0 0 1080 1080" fill="none" xmlns="http://www.w3.org/2000/svg">
<g clip-path="url(#clip0_94_991)">
<path d="M202.48 670.979L214.983 671.587C215.104 671.592 215.222 671.624 215.328 671.681C215.435 671.738 215.527 671.818 215.597 671.916C215.668 672.014 215.715 672.127 215.735 672.246C215.755 672.365 215.748 672.487 215.714 672.602C214.429 677.163 214.645 681.568 216.364 685.817" stroke="#FBFBF6" stroke-width="2"/>
<path d="M216.364 685.816L160.893 686.08C160.745 686.08 160.599 686.117 160.468 686.185C160.338 686.254 160.225 686.354 160.142 686.476C160.058 686.597 160.005 686.738 159.987 686.885C159.969 687.031 159.988 687.18 160.04 687.318C177.482 731.474 201.751 771.537 232.846 807.506" stroke="#82C0DE" stroke-width="2"/>
<path d="M232.846 807.506C244.361 820.768 256.519 833.156 269.319 844.672" stroke="#88BAD6" stroke-width="2"/>
<path d="M269.319 844.672C318.966 889.233 375.141 919.499 437.846 935.467C572.009 969.67 712.038 934.391 814.619 841.891" stroke="#8EB4CE" stroke-width="2"/>
<path d="M814.619 841.892L846.668 809.049" stroke="#88BAD6" stroke-width="2"/>
<path d="M846.668 809.049C877.587 773.35 901.903 733.45 919.615 689.348C919.648 689.269 919.661 689.182 919.651 689.096C919.641 689.01 919.61 688.928 919.56 688.856C919.51 688.784 919.443 688.724 919.364 688.683C919.285 688.641 919.197 688.619 919.108 688.618L877.864 688.557" stroke="#82C0DE" stroke-width="2"/>
<path d="M877.864 688.556C874.982 684.618 873.636 680.098 873.825 674.996" stroke="#FBFBF6" stroke-width="2"/>
<path d="M873.825 674.997L923.878 675.342C924.096 675.348 924.312 675.283 924.494 675.156C924.676 675.028 924.816 674.845 924.893 674.631C955.257 590.541 957.206 505.748 930.738 420.251C900.8 323.589 835.342 242.354 748.329 191.162C681.755 151.985 608.246 133.297 527.802 135.097C491.145 135.923 456.275 141.505 423.191 151.843C401.338 158.664 384.254 164.882 371.941 170.498C351.4 179.862 331.008 191.297 310.766 204.802C278.595 226.278 252.31 250.271 228.38 277.593C218.867 288.473 208.374 302.661 196.899 320.159C159.309 377.482 138.728 440.894 132.862 509.28C128.336 561.873 136.353 615.38 152.124 665.436C153.166 668.725 154.932 670.376 157.421 670.389C172.455 670.497 187.475 670.694 202.481 670.978" stroke="#FBE17C" stroke-width="2"/>
<path d="M873.825 674.996L655.206 673.596" stroke="#FFE57C" stroke-width="2"/>
<path d="M655.207 673.596C647.981 650.794 637.027 630.137 622.346 611.625" stroke="#FDB303" stroke-width="2"/>
<path d="M622.345 611.626C625.051 602.126 625.166 591.943 622.69 581.077C616.723 554.837 604.754 531.846 586.784 512.102C586.617 511.917 586.495 511.694 586.428 511.453C586.362 511.212 586.353 510.96 586.403 510.716C586.452 510.472 586.559 510.245 586.713 510.052C586.868 509.859 587.066 509.706 587.292 509.605C591.006 507.941 594.538 506.662 596.852 503.617C601.317 497.717 601.202 491.919 596.507 486.222C596.314 485.986 596.064 485.805 595.78 485.694C595.496 485.584 595.188 485.549 594.885 485.591C594.582 485.634 594.295 485.753 594.049 485.938C593.804 486.123 593.609 486.367 593.482 486.648C591.514 491.114 588.855 495.742 583.862 494.788C583.496 494.711 583.167 494.515 582.924 494.228C582.682 493.941 582.54 493.581 582.522 493.204C582.373 489.239 582.299 487.237 582.299 487.196C583.95 472.486 585.587 456.078 587.211 437.972C588.51 423.492 587.921 411.902 585.445 403.201C581.67 389.885 565.574 393.64 556.806 398.938C554.018 400.63 550.757 402.781 547.023 405.393C546.124 406.02 545.46 406.927 545.136 407.972C544.812 409.017 544.848 410.138 545.236 411.158C547.212 416.368 548.585 422.369 549.357 429.162C552.787 459.123 550.838 495.133 551.853 521.155C552.435 536.109 550.953 549.959 547.408 562.706C544.79 572.105 542.029 582.173 535.189 586.435C534.73 586.72 534.21 586.892 533.671 586.937C533.132 586.982 532.591 586.9 532.09 586.696C531.59 586.492 531.144 586.173 530.79 585.764C530.437 585.356 530.184 584.869 530.054 584.345C527.632 574.534 526.908 564.303 527.882 553.653C529.073 540.689 530.359 527.658 531.739 514.558C532.51 507.17 531.13 490.545 520.352 491.702C513.086 492.494 502.511 498.157 496.747 502.866C496.202 503.312 495.822 503.927 495.668 504.611C495.513 505.296 495.593 506.011 495.894 506.642C498.019 511.189 499.115 516.189 499.182 521.642" stroke="#FFE57C" stroke-width="2"/>
<path d="M499.183 521.641L490.171 522.351" stroke="#FDB303" stroke-width="2"/>
<path d="M490.171 522.353C490.292 503.942 478.987 486.851 458.507 491.053C456.261 491.513 453.988 492.934 451.687 495.315C439.59 507.819 434.922 523.104 429.746 539.282C429.693 539.446 429.584 539.586 429.439 539.68C429.294 539.773 429.121 539.814 428.95 539.795C428.778 539.776 428.618 539.698 428.497 539.575C428.376 539.452 428.301 539.291 428.285 539.12C427.798 532.523 428.711 524.017 421.688 522.394C420.958 522.218 418.59 522.306 414.584 522.657C414.289 522.684 414 522.767 413.732 522.901L399.463 530.31C398.651 530.735 397.995 531.408 397.59 532.233C397.185 533.057 397.052 533.99 397.21 534.897C397.765 537.942 398.103 541.325 398.225 545.047C398.726 561.719 399.747 578.309 401.29 594.819C401.601 598.188 402.961 603.777 405.37 611.585" stroke="#FFE57C" stroke-width="2"/>
<path d="M405.37 611.584C398.577 613.33 394.22 617.619 392.299 624.453" stroke="#FDB303" stroke-width="2"/>
<path d="M392.298 624.454C388.55 615.184 386.534 605.624 386.25 595.772C385.736 577.382 385.817 560.013 386.493 543.666C386.723 538.104 388.672 519.599 392.339 488.15C393.232 480.599 393.252 473.291 393.963 466.187C393.998 465.848 394.111 465.523 394.293 465.236C394.476 464.949 394.722 464.708 395.014 464.533C395.305 464.358 395.633 464.253 395.972 464.226C396.311 464.2 396.652 464.252 396.967 464.38L412.047 470.571C412.423 470.726 412.762 470.958 413.043 471.25C413.325 471.543 413.542 471.89 413.681 472.27C413.821 472.65 413.879 473.055 413.853 473.458C413.827 473.861 413.717 474.253 413.529 474.611C411.723 478.041 411.804 484.78 411.033 493.569C410.667 497.588 412.717 500.146 411.215 504.591C410.647 506.242 408.847 508.177 405.816 510.397C400.884 513.99 397.494 519.795 397.596 526.23C397.602 526.377 397.651 526.52 397.736 526.64C397.821 526.761 397.939 526.855 398.076 526.91C398.213 526.966 398.363 526.981 398.508 526.954C398.653 526.927 398.787 526.859 398.895 526.757L399.991 525.641C400.569 525.063 400.933 524.304 401.026 523.489C401.581 518.009 404.213 513.354 408.922 509.524C409.225 509.273 409.593 509.114 409.984 509.065C410.374 509.016 410.771 509.08 411.126 509.248C411.482 509.416 411.782 509.682 411.992 510.015C412.202 510.348 412.313 510.734 412.311 511.128V519.247C412.311 519.324 412.326 519.401 412.356 519.472C412.386 519.544 412.429 519.609 412.484 519.663C412.538 519.718 412.603 519.761 412.675 519.791C412.746 519.82 412.823 519.836 412.9 519.836H413.57C413.674 519.836 413.774 519.796 413.85 519.724C413.925 519.652 413.97 519.554 413.976 519.45C414.199 512.995 411.479 508.042 415.437 501.161C415.61 500.851 415.665 500.488 415.59 500.141C415.515 499.793 415.317 499.485 415.031 499.273C414.706 499.03 414.503 498.786 414.422 498.542C414.301 498.166 414.239 497.776 414.239 497.385L414.402 477.432C414.408 476.983 414.525 476.541 414.745 476.145C414.964 475.748 415.278 475.41 415.66 475.159C418.272 473.494 420.904 472.398 423.556 471.87C427.209 471.139 428.589 469.901 430.802 467.729C431.324 467.211 432.031 466.923 432.769 466.927C433.507 466.93 434.215 467.226 434.739 467.75L439.103 472.114C439.182 472.19 439.28 472.243 439.386 472.267C439.493 472.291 439.604 472.284 439.707 472.248C439.81 472.213 439.902 472.149 439.971 472.064C440.04 471.979 440.084 471.877 440.098 471.769C440.139 471.525 440.132 471.2 440.078 470.794C440.024 470.301 440.139 469.824 440.411 469.42C440.682 469.017 441.098 468.704 441.608 468.52C442.118 468.335 442.7 468.287 443.286 468.381C443.871 468.475 444.435 468.707 444.908 469.049C447.885 471.214 450.043 473.826 451.383 476.884C451.466 477.061 451.608 477.204 451.784 477.289C451.961 477.374 452.161 477.396 452.352 477.351C452.542 477.306 452.711 477.196 452.831 477.041C452.95 476.886 453.012 476.694 453.007 476.498C452.601 469.171 447.831 463.142 442.554 458.067C441.249 456.816 440.14 455.379 439.266 453.805C432.974 442.519 426.215 435.82 412.088 436.754C403.103 437.349 396.994 441.138 393.76 448.121C393.546 448.585 393.216 448.985 392.801 449.283C392.386 449.58 391.901 449.764 391.393 449.818C390.885 449.871 390.373 449.791 389.905 449.586C389.437 449.381 389.031 449.058 388.726 448.649L388.442 448.263C387.565 447.089 386.999 445.71 386.797 444.255C386.595 442.8 386.763 441.316 387.285 439.941C390.803 430.766 393.422 423.756 395.14 418.911C397.17 413.167 394.633 404.926 387.021 406.529C386.327 406.676 385.674 406.989 385.113 407.443C380.621 411.151 377.482 414.615 375.695 417.836C375.571 418.062 375.534 418.329 375.591 418.583C375.648 418.837 375.796 419.061 376.005 419.213C376.214 419.364 376.47 419.431 376.724 419.402C376.978 419.372 377.212 419.248 377.38 419.053C380.276 415.846 384.295 414.114 389.437 413.857C389.792 413.837 390.146 413.907 390.466 414.062C390.787 414.216 391.063 414.45 391.27 414.742C391.476 415.033 391.606 415.373 391.648 415.729C391.689 416.086 391.641 416.447 391.507 416.78L381.683 440.753C381.332 441.61 380.779 442.369 380.072 442.963C379.364 443.557 378.524 443.969 377.624 444.163C370.249 445.733 363.003 449.028 355.886 454.048C353.389 455.814 350.547 456.301 349.898 460.239C349.804 460.826 349.853 461.425 350.04 461.985C353.653 473.081 355.432 486.397 355.378 501.932C355.283 530.526 351.982 558.389 345.473 585.522C341.941 600.285 337.463 613.581 332.037 625.408C326.597 637.283 311.191 663.569 294.994 649.949C281.416 638.501 280.888 601.436 281.7 585.643C282.931 561.299 284.873 537.61 287.525 514.578C289.244 499.639 288.337 482.804 284.805 464.076C282.289 450.719 272.302 433.587 256.004 435.191C222.737 438.479 200.451 465.151 189.876 495.396C179.863 523.99 176.737 553.308 180.499 583.35C181.636 592.416 185.309 601.104 191.52 609.413C191.951 609.965 192.464 610.451 193.042 610.854C199.497 615.293 206.175 617.18 213.076 616.517C213.437 616.483 213.786 616.363 214.093 616.168C214.4 615.974 214.656 615.71 214.842 615.397C215.028 615.085 215.137 614.733 215.162 614.371C215.187 614.008 215.125 613.645 214.984 613.31C210.856 603.567 208.624 593.898 208.286 584.304C207.798 571.089 208.042 556.799 210.904 543.159C216.804 515.16 226.188 487.757 239.056 460.95C239.719 459.556 241.539 457.472 244.516 454.698C249.732 449.806 254.725 452.14 255.578 458.676C256.349 464.657 256.383 470.402 255.679 475.91C252.973 497.155 250.578 521.581 248.494 549.187C246.119 580.731 246.119 610.834 256.471 639.759C260.936 652.236 268.669 662.378 279.67 670.187C279.832 670.304 279.953 670.47 280.015 670.661C280.078 670.851 280.079 671.056 280.018 671.247C279.958 671.438 279.838 671.605 279.678 671.724C279.517 671.844 279.322 671.909 279.122 671.912L202.481 670.978" stroke="#FFE57C" stroke-width="2"/>
<path d="M392.299 624.453L395.83 630.441C396.064 630.839 396.143 631.307 396.053 631.757C395.963 632.207 395.71 632.606 395.343 632.877C389.592 637.166 383.267 638.56 376.366 637.058C365.811 634.764 360.392 618.85 358.687 609.432C358.645 609.229 358.538 609.046 358.383 608.91C358.228 608.773 358.033 608.691 357.827 608.675C357.621 608.659 357.415 608.71 357.241 608.821C357.067 608.932 356.933 609.096 356.86 609.29C352.787 621.185 347.293 632.924 340.379 644.508C333.031 656.808 324.405 664.847 312.207 670.571C312.092 670.618 311.998 670.704 311.941 670.814C311.883 670.924 311.867 671.051 311.893 671.172C311.92 671.293 311.988 671.401 312.086 671.476C312.184 671.552 312.306 671.591 312.43 671.586L655.206 673.595" stroke="#FDCD7E" stroke-width="2"/>
<path d="M877.865 688.557L216.364 685.816" stroke="#86C5DE" stroke-width="2"/>
<path d="M622.345 611.624C619.369 619.973 613.496 625.292 604.728 627.579C590.696 631.259 580.094 626.943 572.922 614.628C565.554 601.942 561.779 589.823 557.76 574.173C557.728 574.022 557.646 573.887 557.527 573.788C557.409 573.689 557.261 573.633 557.106 573.628C556.952 573.623 556.801 573.67 556.676 573.762C556.552 573.853 556.462 573.984 556.421 574.133C553.566 582.929 549.648 590.716 544.669 597.496C537.93 606.712 530.177 610.426 519.135 611.259C518.479 611.312 517.821 611.222 517.207 610.995C507.647 607.585 502.552 597.11 501.132 587.976C498.195 569.207 497.573 550.329 499.264 531.343C499.4 529.868 499.372 526.634 499.183 521.641" stroke="#FDCD7E" stroke-width="2"/>
<path d="M490.171 522.352C489.846 535.201 487.39 545.898 482.194 558.565C474.177 578.173 471.66 609.595 493.48 621.997C493.914 622.245 494.294 622.578 494.597 622.976C494.9 623.373 495.12 623.827 495.243 624.311C495.366 624.794 495.39 625.297 495.314 625.789C495.238 626.281 495.062 626.752 494.799 627.173C489.177 636.125 481.139 638.277 471.234 637.181C462.405 636.206 455.037 626.828 452.784 619.074C448.643 604.744 449.577 586.211 452.013 572.246C454.57 557.55 456.228 547.387 456.985 541.757C457.892 534.991 457.534 528.536 455.91 522.393C455.802 521.984 455.599 521.606 455.316 521.292C455.034 520.977 454.681 520.735 454.287 520.586C453.893 520.437 453.47 520.385 453.053 520.434C452.636 520.484 452.237 520.633 451.891 520.87C446.675 524.443 446.025 528.645 443.955 534.166C436.485 554.072 432.893 574.424 433.177 595.224C433.285 603.37 434.226 610.766 435.998 617.41C436.092 617.76 436.236 618.095 436.425 618.405L439.185 622.951C439.362 623.243 439.478 623.567 439.527 623.905C439.576 624.242 439.556 624.586 439.469 624.916C439.381 625.245 439.229 625.554 439.02 625.824C438.81 626.093 438.549 626.317 438.251 626.483C434.219 628.743 429.842 629.927 425.119 630.036C413.002 630.299 408.435 621.612 405.37 611.584" stroke="#FDCD7E" stroke-width="2"/>
<path d="M846.668 809.048C816.142 805.557 786.928 803.662 759.026 803.364C649.199 802.167 502.695 802.207 374.417 801.903C325.583 801.781 280.99 802.349 232.846 807.505" stroke="#1484BD" stroke-width="2"/>
<path d="M814.619 841.891C783.064 839.415 755.758 838.19 732.701 838.217C631.689 838.366 529.297 838.474 425.525 838.542C372.712 838.583 321.604 835.639 269.319 844.672" stroke="#2078AD" stroke-width="2"/>
<path d="M753.89 524.727C754.441 524.952 754.929 525.308 755.311 525.764C755.693 526.221 755.958 526.764 756.082 527.346C758.18 537.224 761.969 545.878 767.449 553.307C771.305 558.544 776.481 560.513 782.976 559.214C789.593 557.888 794.572 555.493 797.915 552.029C802.218 547.543 807.414 541.412 809.768 535.221C814.896 521.797 817.427 507.291 817.359 491.701C817.346 490.025 816.916 488.379 816.108 486.911C815.3 485.444 814.14 484.202 812.731 483.298L812.427 483.095C811.92 482.769 811.337 482.581 810.735 482.549C810.133 482.517 809.533 482.643 808.994 482.913C808.456 483.183 807.997 483.589 807.663 484.091C807.328 484.593 807.131 485.173 807.089 485.774C806.128 498.386 804.619 508.942 802.563 517.44C801.101 523.489 797.976 532.014 792.394 534.917C792.041 535.103 791.653 535.212 791.255 535.236C790.857 535.26 790.458 535.199 790.084 535.057C789.71 534.915 789.37 534.696 789.086 534.413C788.802 534.129 788.58 533.789 788.436 533.415C786.163 527.379 784.904 520.776 784.661 513.603C783.876 489.056 785.148 463.209 788.477 436.063C788.923 432.308 788.72 427.375 790.384 423.661C790.677 423.008 791.13 422.44 791.701 422.011C792.273 421.581 792.944 421.304 793.652 421.205C824.118 417.003 885.699 397.902 886.613 358.421C886.734 352.968 884.82 349.077 880.869 346.75C877.012 344.476 873.968 345.166 871.857 349.246C865.673 361.114 856.884 370.749 845.491 378.152C829.524 388.558 812.556 396.934 794.586 403.281C794.28 403.391 793.951 403.42 793.63 403.365C793.31 403.311 793.008 403.174 792.754 402.969C792.5 402.764 792.301 402.496 792.178 402.192C792.055 401.888 792.01 401.557 792.049 401.231C793.612 388.808 796.616 360.35 773.416 368.53C765.406 371.358 758.532 375.005 752.794 379.471C751.792 380.252 751.059 381.325 750.695 382.54C750.331 383.755 750.355 385.052 750.765 386.251C753.809 395.101 755.859 400.318 755.311 407.402C755.278 407.886 755.13 408.355 754.879 408.77C754.628 409.185 754.281 409.535 753.867 409.791C753.452 410.047 752.983 410.201 752.497 410.24C752.01 410.28 751.521 410.205 751.069 410.02L740.576 405.717C740.497 405.685 740.414 405.671 740.329 405.673C740.245 405.675 740.161 405.695 740.083 405.731C740.006 405.767 739.936 405.819 739.877 405.882C739.819 405.946 739.773 406.021 739.743 406.103C736.638 415.237 743.803 423.864 753.221 422.646C753.732 422.583 754.247 422.724 754.654 423.04C755.061 423.356 755.326 423.82 755.392 424.331C755.663 426.631 755.697 429.196 755.494 432.024C753.762 456.084 753.302 479.732 754.114 502.967C754.131 503.431 754.052 503.894 753.883 504.326C753.714 504.758 753.457 505.151 753.13 505.48C752.803 505.81 752.411 506.068 751.98 506.24C751.549 506.412 751.087 506.493 750.623 506.479C744.452 506.337 740.657 505.443 736.597 499.963C730.995 492.371 724.067 483.325 715.813 472.824C709.44 464.704 708.452 456.111 712.85 447.045C713.034 446.671 713.131 446.26 713.134 445.842C713.136 445.425 713.045 445.012 712.865 444.634C712.686 444.256 712.424 443.922 712.098 443.658C711.772 443.394 711.391 443.205 710.982 443.107C708.493 442.498 705.895 442.579 703.188 443.35C689.041 447.329 680.577 460.259 683.967 474.529C685.571 481.349 689.934 489.976 689.488 497.811C688.412 516.648 685.611 537.109 669.962 549.004C665.849 552.144 662.175 553.517 658.941 553.125C648.691 551.866 645.809 542.224 644.246 533.252C644.214 533.054 644.225 532.851 644.278 532.657C644.331 532.464 644.426 532.284 644.555 532.13C644.684 531.976 644.844 531.851 645.026 531.765C645.207 531.678 645.405 531.632 645.606 531.629C654.009 531.446 662.371 522.596 665.74 515.877C673.189 500.937 675.929 479.258 667.1 464.014C655.957 444.832 633.001 450.13 623.482 466.795C616.08 479.759 612.346 493.549 612.278 508.163C612.197 525.6 615.14 544.64 626.648 558.849C640.45 575.879 665.984 572.165 680.375 559.072C680.575 558.888 680.819 558.759 681.083 558.697C681.348 558.635 681.624 558.642 681.885 558.718C682.145 558.793 682.383 558.934 682.573 559.128C682.764 559.322 682.901 559.561 682.973 559.823C687.871 578.349 699.907 585.798 719.081 582.172C745.954 577.097 760.649 551.257 750.886 525.275C750.823 525.095 750.812 524.901 750.856 524.716C750.899 524.53 750.995 524.361 751.132 524.229C751.269 524.096 751.441 524.006 751.628 523.968C751.814 523.931 752.008 523.947 752.185 524.017L753.89 524.727Z" stroke="#FFE57C" stroke-width="2"/>
<path d="M426.012 490.645L418.035 498.622C417.948 498.702 417.837 498.75 417.719 498.759C417.602 498.768 417.484 498.737 417.386 498.672C417.288 498.606 417.215 498.51 417.178 498.398C417.141 498.286 417.143 498.165 417.183 498.054C418.184 495.686 419.638 493.467 421.546 491.396C422.334 490.539 422.811 489.41 422.909 488.169C423.007 486.928 422.722 485.636 422.094 484.474C419.929 480.469 418.793 477.715 418.685 476.213C418.678 476.088 418.71 475.963 418.776 475.857C418.842 475.751 418.94 475.667 419.055 475.618C419.171 475.57 419.298 475.558 419.421 475.584C419.544 475.61 419.655 475.674 419.74 475.766C422.135 478.459 424.381 482.702 426.479 488.493C426.613 488.857 426.64 489.253 426.557 489.634C426.475 490.015 426.285 490.365 426.012 490.645Z" stroke="#FFE57C" stroke-width="2"/>
<path d="M798.95 624.779C799.383 619.542 801.879 615.909 806.439 613.879C806.737 613.749 807.068 613.72 807.384 613.795C807.7 613.87 807.983 614.045 808.191 614.294C808.399 614.543 808.52 614.853 808.538 615.177C808.555 615.501 808.467 615.821 808.286 616.091C804.633 621.409 803.232 631.315 811.838 632.431C827.386 634.482 835.078 619.745 836.966 606.551C836.99 606.38 836.964 606.205 836.892 606.047C836.82 605.89 836.705 605.757 836.56 605.664C836.416 605.572 836.249 605.524 836.08 605.526C835.911 605.529 835.746 605.581 835.606 605.678C829.72 609.562 822.995 611.653 815.431 611.95C806.074 612.316 797.204 608.073 797.894 597.579C798.246 592.22 800.607 588.018 804.978 584.974C813.503 579.033 823.841 577.22 835.992 579.534C844.05 581.056 848.799 588.059 849.104 595.549C849.686 609.92 844.354 621.186 833.11 629.346C826.926 633.839 820.688 636.065 814.396 636.024C805.79 635.963 798.077 635.476 798.95 624.779Z" stroke="#FFE57C" stroke-width="2"/>
<path d="M788.578 638.074C786.765 629.345 787.313 619.967 790.222 609.94C792.597 601.739 793.571 595.021 793.652 587.693C793.664 586.783 793.375 585.893 792.829 585.16C792.283 584.427 791.51 583.89 790.628 583.633C783.382 581.542 778.774 587.084 773.883 591.468C773.254 592.03 772.505 592.446 771.691 592.686L765.865 594.391C765.615 594.468 765.39 594.61 765.214 594.803C765.038 594.996 764.917 595.233 764.865 595.487C764.813 595.742 764.831 596.005 764.918 596.248C765.005 596.491 765.157 596.705 765.358 596.868C769.478 600.197 778.206 595.284 780.946 592.361C781.162 592.127 781.45 591.972 781.765 591.921C782.079 591.87 782.402 591.926 782.681 592.081C782.96 592.235 783.178 592.479 783.302 592.773C783.425 593.067 783.446 593.394 783.361 593.701C780.79 603.512 779.045 613.688 778.125 624.23C777.786 628.06 778.226 631.937 779.444 635.861C779.712 636.707 780.159 637.483 780.755 638.135C781.351 638.787 782.082 639.3 782.895 639.637L785.472 640.672C785.858 640.828 786.279 640.876 786.689 640.812C787.1 640.747 787.486 640.572 787.805 640.305C788.124 640.038 788.364 639.69 788.501 639.297C788.637 638.903 788.663 638.481 788.578 638.074Z" stroke="#FFE57C" stroke-width="2"/>
<path d="M753.261 600.137C752.774 602.37 752.524 603.567 752.51 603.73C752.463 604.016 752.521 604.309 752.674 604.556C752.828 604.802 753.065 604.985 753.342 605.069C758.274 606.612 761.623 607.668 764.1 612.255C766.968 617.506 767.165 623.318 764.688 629.691C761.38 638.156 755.981 644.002 747.111 646.905C733.796 651.269 714.818 650.863 712.626 633.203C710.191 613.514 725.292 593.58 745 591.246C750.663 590.576 754.499 594.514 753.261 600.137Z" stroke="#FFE57C" stroke-width="2"/>
<path d="M686.119 609.799C684.035 612.438 683.094 615.658 683.297 619.461C683.306 619.576 683.283 619.691 683.229 619.793C683.175 619.895 683.093 619.979 682.993 620.036C682.894 620.094 682.779 620.122 682.664 620.117C682.549 620.112 682.438 620.075 682.343 620.009C677.729 616.991 676.978 613.534 680.09 609.636C683.46 605.394 690.401 597.904 696.348 598.838C703.615 599.974 707.173 604.366 707.024 612.011C706.842 620.598 702.011 627.235 697.586 632.797C696.966 633.58 696.265 634.294 695.496 634.928C688.189 640.869 682.384 646.099 678.081 650.619C677.824 650.89 677.702 651.106 677.716 651.269C677.732 651.446 677.788 651.617 677.878 651.77C677.969 651.923 678.093 652.054 678.241 652.153C678.388 652.252 678.556 652.317 678.732 652.343C678.908 652.369 679.088 652.356 679.258 652.304C689.528 649.218 700.144 645.24 709.704 645.788C709.905 645.797 710.103 645.849 710.283 645.939C710.464 646.029 710.624 646.157 710.754 646.313C710.884 646.469 710.98 646.651 711.037 646.847C711.093 647.044 711.109 647.25 711.084 647.452C710.597 651.106 708.567 653.224 704.995 653.806C694.143 655.579 685.138 656.986 677.979 658.028C676.396 658.258 673.602 657.872 669.597 656.871C669.23 656.781 668.899 656.582 668.646 656.3C668.393 656.018 668.229 655.665 668.176 655.288C667.851 652.811 668.995 650.125 671.606 647.229C684.339 633.115 690.895 625.814 691.274 625.327C696.497 618.52 699.075 611.68 699.007 604.805C699.001 604.298 698.875 603.799 698.64 603.349C698.405 602.899 698.067 602.511 697.654 602.216C697.24 601.922 696.763 601.729 696.261 601.653C695.76 601.577 695.247 601.621 694.765 601.781C691.051 603.039 688.899 606.287 686.119 609.799Z" stroke="#FFE57C" stroke-width="2"/>
<path d="M658.068 486.321C656.81 495.523 652.757 503.264 645.911 509.543C645.791 509.655 645.64 509.729 645.479 509.756C645.317 509.783 645.151 509.761 645.001 509.694C644.851 509.627 644.725 509.517 644.637 509.378C644.55 509.239 644.506 509.077 644.51 508.913C644.659 499.414 645.931 488.703 648.326 476.781C648.935 473.675 650.802 467.728 654.212 466.429C654.585 466.287 654.992 466.256 655.407 466.337C655.822 466.418 656.236 466.609 656.623 466.899C657.01 467.189 657.362 467.571 657.656 468.021C657.95 468.471 658.181 468.98 658.332 469.514C659.794 474.629 658.819 480.78 658.068 486.321Z" stroke="#FFE57C" stroke-width="2"/>
<path d="M699.86 507.534L698.987 518.576C698.984 518.619 698.99 518.662 699.004 518.702C699.018 518.742 699.039 518.78 699.068 518.812C699.096 518.844 699.13 518.87 699.169 518.889C699.207 518.908 699.249 518.919 699.292 518.921L699.434 518.941C700.973 519.059 702.496 518.561 703.668 517.556C704.84 516.551 705.566 515.122 705.685 513.583L705.705 513.501C705.823 511.962 705.325 510.439 704.32 509.266C703.315 508.094 701.886 507.369 700.347 507.25L700.205 507.229C700.162 507.226 700.119 507.232 700.079 507.246C700.039 507.26 700.001 507.281 699.969 507.31C699.937 507.338 699.911 507.372 699.892 507.411C699.873 507.449 699.862 507.491 699.86 507.534Z" stroke="#FFE57C" stroke-width="2"/>
<path d="M723.729 529.092C723.28 528.515 722.649 528.107 721.94 527.937C721.232 527.768 720.488 527.845 719.832 528.158C705.867 534.674 696.511 542.225 697.525 559.235C698.418 574.418 716.077 575.433 724.683 566.441C733.938 556.779 732.01 539.688 723.729 529.092Z" stroke="#FFE57C" stroke-width="2"/>
<path d="M592.102 609.148C581.791 601.739 582.583 540.722 582.867 529.192C582.878 528.951 582.969 528.719 583.124 528.532C583.28 528.345 583.492 528.215 583.726 528.162C583.961 528.108 584.205 528.135 584.421 528.237C584.636 528.339 584.811 528.511 584.917 528.726C596.04 550.729 600.932 574.282 599.592 599.385C599.416 602.646 598.604 605.488 597.156 607.91C596.897 608.342 596.557 608.72 596.157 609.019C595.756 609.318 595.305 609.533 594.83 609.649C594.355 609.766 593.868 609.781 593.399 609.695C592.929 609.609 592.488 609.423 592.102 609.148Z" stroke="#FDCD7E" stroke-width="2"/>
<path d="M827.675 582.102C831.429 582.851 834.355 584.932 835.809 587.889C837.264 590.845 837.128 594.433 835.431 597.865C833.734 601.296 830.615 604.29 826.761 606.187C822.906 608.083 818.632 608.728 814.878 607.979C811.124 607.23 808.198 605.148 806.744 602.192C805.289 599.236 805.425 595.647 807.122 592.216C808.819 588.784 811.938 585.791 815.792 583.894C819.646 581.997 823.921 581.353 827.675 582.102Z" stroke="#FFE57C" stroke-width="2"/>
<path d="M740.697 612.132L740.535 613.106C740.501 613.297 740.519 613.494 740.588 613.675C740.657 613.856 740.773 614.016 740.925 614.136C741.077 614.257 741.258 614.334 741.45 614.36C741.643 614.386 741.838 614.36 742.016 614.283L749.993 610.975C750.314 610.841 750.667 610.779 751.028 610.792C763.125 611.584 759.614 629.426 755.433 635.983C749.08 645.969 733.492 649.806 724.784 639.88C724.15 639.139 723.76 638.225 723.668 637.261C723.073 630.766 723.046 626.584 723.587 624.717C725.792 617.125 728.817 610.481 732.66 604.784C735.136 601.11 742.443 592.544 747.131 594.208C747.581 594.366 747.994 594.615 748.344 594.939C748.695 595.264 748.975 595.657 749.169 596.096C749.363 596.535 749.465 597.009 749.471 597.491C749.477 597.973 749.385 598.451 749.202 598.897C747.456 603.16 744.872 607.071 741.448 610.63C741.051 611.04 740.789 611.564 740.697 612.132Z" stroke="#FFE57C" stroke-width="2"/>
<path d="M537.463 700.187C614.977 700.166 660.788 699.557 753.119 697.731C777.178 697.257 792.746 696.499 799.823 695.457C799.965 695.437 800.168 695.457 799.944 695.457C712.451 693.102 624.957 691.932 537.463 691.945C449.956 691.972 362.455 693.177 274.962 695.559C274.759 695.579 274.962 695.559 275.104 695.579C282.181 696.607 297.748 697.358 321.807 697.832C414.138 699.618 459.928 700.207 537.463 700.187Z" stroke="#77C4E2" stroke-width="2"/>
<path d="M335.284 711.738C346.326 712.157 358.781 712.36 372.651 712.347C389.335 712.333 401.784 712.421 409.998 712.61C477.113 714.126 544.81 714.701 613.09 714.336C655.084 714.113 691.375 712.631 730.752 711.819C730.79 711.819 730.83 711.811 730.868 711.797C730.906 711.782 730.939 711.762 730.963 711.738C730.987 711.714 731.001 711.687 731.003 711.662C731.005 711.637 730.995 711.613 730.975 711.596C730.894 711.541 730.833 711.487 730.792 711.433C730.621 711.25 730.4 711.128 730.163 711.088C724.777 710.33 718.221 709.87 710.495 709.708C682.851 709.16 646.823 708.916 618.326 708.125C523.316 705.465 428.833 704.735 335.284 711.738Z" stroke="#77C4E2" stroke-width="2"/>
<path d="M538.965 727.427C551.657 727.413 569.931 727.237 593.787 726.899C627.047 726.426 658.061 725.674 686.829 724.646C686.938 724.641 687.042 724.594 687.117 724.514C687.193 724.435 687.235 724.329 687.235 724.22C687.235 724.115 687.195 724.015 687.123 723.94C687.051 723.864 686.953 723.819 686.849 723.814C637.608 722.271 588.246 721.236 538.965 721.256C489.663 721.276 440.301 722.373 391.06 723.956C390.956 723.961 390.858 724.006 390.786 724.082C390.715 724.157 390.675 724.258 390.675 724.362C390.675 724.471 390.717 724.577 390.792 724.656C390.868 724.736 390.971 724.783 391.081 724.788C419.862 725.789 450.876 726.513 484.122 726.96C507.992 727.271 526.273 727.427 538.965 727.427Z" stroke="#77C4E2" stroke-width="2"/>
<path d="M549.662 739.648C584.248 739.661 617.048 738.633 648.062 736.562C648.107 736.57 648.152 736.56 648.186 736.533C648.221 736.507 648.241 736.466 648.244 736.42C648.247 736.375 648.231 736.327 648.201 736.289C648.17 736.251 648.128 736.225 648.082 736.217C645.592 735.662 643.048 735.324 640.45 735.202C609.707 733.822 579.444 733.125 549.662 733.112C519.879 733.098 489.609 733.775 458.853 735.141C456.268 735.263 453.731 735.595 451.241 736.136C451.198 736.144 451.157 736.168 451.127 736.204C451.098 736.239 451.081 736.284 451.081 736.327C451.081 736.371 451.098 736.412 451.127 736.44C451.157 736.469 451.198 736.483 451.241 736.481C482.269 738.579 515.075 739.634 549.662 739.648Z" stroke="#77C4E2" stroke-width="2"/>
<path d="M583.9 749.656C593.142 750.059 598.334 750.606 598.334 751.177C598.334 751.748 593.142 752.295 583.9 752.698C574.658 753.102 562.123 753.329 549.053 753.329C535.983 753.329 523.448 753.102 514.206 752.698C504.964 752.295 499.771 751.748 499.771 751.177C499.771 750.606 504.964 750.059 514.206 749.656C523.448 749.252 535.983 749.025 549.053 749.025C562.123 749.025 574.658 749.252 583.9 749.656Z" stroke="#77C4E2" stroke-width="2"/>
<path d="M873.825 674.997L655.206 673.596C647.98 650.794 637.027 630.137 622.345 611.625C625.052 602.125 625.167 591.942 622.69 581.076C616.723 554.836 604.754 531.845 586.785 512.101C586.617 511.916 586.495 511.693 586.429 511.452C586.362 511.211 586.354 510.959 586.403 510.715C586.453 510.472 586.559 510.244 586.714 510.051C586.868 509.858 587.066 509.705 587.292 509.605C591.007 507.94 594.538 506.661 596.852 503.616C601.317 497.716 601.202 491.918 596.507 486.221C596.314 485.985 596.064 485.804 595.78 485.693C595.497 485.583 595.189 485.548 594.886 485.59C594.583 485.633 594.295 485.752 594.05 485.937C593.804 486.122 593.609 486.367 593.483 486.647C591.514 491.113 588.855 495.741 583.862 494.787C583.497 494.71 583.167 494.514 582.925 494.227C582.682 493.941 582.541 493.58 582.522 493.203C582.374 489.238 582.299 487.236 582.299 487.195C583.95 472.485 585.587 456.077 587.211 437.971C588.51 423.492 587.921 411.901 585.445 403.2C581.67 389.884 565.574 393.639 556.806 398.937C554.019 400.629 550.758 402.78 547.023 405.392C546.124 406.019 545.46 406.926 545.136 407.971C544.813 409.016 544.848 410.137 545.237 411.157C547.212 416.367 548.586 422.368 549.357 429.162C552.787 459.122 550.839 495.132 551.854 521.154C552.435 536.108 550.954 549.958 547.409 562.705C544.79 572.104 542.03 582.172 535.19 586.434C534.73 586.719 534.21 586.891 533.671 586.936C533.133 586.981 532.591 586.899 532.091 586.695C531.59 586.491 531.145 586.172 530.791 585.763C530.437 585.355 530.185 584.868 530.055 584.344C527.633 574.533 526.909 564.302 527.883 553.652C529.074 540.688 530.359 527.657 531.739 514.557C532.511 507.169 531.13 490.544 520.353 491.701C513.086 492.493 502.512 498.156 496.747 502.865C496.203 503.311 495.823 503.926 495.668 504.61C495.514 505.295 495.593 506.01 495.895 506.641C498.019 511.188 499.115 516.188 499.183 521.642L490.171 522.352C490.293 503.941 478.987 486.85 458.508 491.052C456.261 491.512 453.988 492.933 451.688 495.314C439.591 507.818 434.922 523.103 429.747 539.281C429.693 539.445 429.585 539.586 429.439 539.679C429.294 539.772 429.122 539.813 428.95 539.794C428.778 539.775 428.619 539.697 428.498 539.574C428.377 539.451 428.302 539.29 428.285 539.119C427.798 532.522 428.712 524.016 421.689 522.393C420.958 522.217 418.59 522.305 414.585 522.656C414.29 522.683 414.001 522.766 413.732 522.9L399.464 530.309C398.651 530.734 397.996 531.407 397.591 532.232C397.186 533.056 397.053 533.989 397.211 534.896C397.765 537.941 398.104 541.324 398.225 545.046C398.726 561.718 399.748 578.308 401.29 594.818C401.602 598.187 402.961 603.776 405.37 611.584C398.577 613.33 394.22 617.62 392.299 624.453C388.551 615.184 386.534 605.623 386.25 595.772C385.736 577.381 385.817 560.013 386.494 543.665C386.724 538.104 388.672 519.598 392.339 488.149C393.232 480.598 393.253 473.291 393.963 466.186C393.998 465.848 394.111 465.522 394.293 465.235C394.476 464.948 394.722 464.708 395.014 464.532C395.305 464.357 395.633 464.252 395.972 464.226C396.311 464.199 396.652 464.252 396.967 464.379L412.048 470.571C412.423 470.726 412.762 470.957 413.044 471.25C413.325 471.542 413.542 471.89 413.682 472.27C413.821 472.65 413.88 473.054 413.853 473.457C413.827 473.86 413.717 474.253 413.529 474.61C411.723 478.04 411.804 484.779 411.033 493.569C410.668 497.588 412.718 500.145 411.216 504.591C410.647 506.242 408.848 508.177 405.817 510.396C400.884 513.989 397.495 519.794 397.596 526.229C397.603 526.377 397.651 526.519 397.737 526.64C397.822 526.76 397.94 526.854 398.076 526.91C398.213 526.965 398.363 526.98 398.508 526.953C398.653 526.926 398.788 526.858 398.895 526.757L399.991 525.64C400.569 525.062 400.934 524.304 401.026 523.489C401.581 518.008 404.213 513.353 408.922 509.523C409.225 509.273 409.594 509.113 409.984 509.065C410.375 509.016 410.771 509.079 411.127 509.247C411.482 509.416 411.783 509.682 411.993 510.015C412.202 510.348 412.313 510.733 412.312 511.127V519.246C412.312 519.324 412.327 519.4 412.356 519.472C412.386 519.543 412.429 519.608 412.484 519.663C412.539 519.717 412.604 519.761 412.675 519.79C412.746 519.82 412.823 519.835 412.9 519.835H413.57C413.674 519.835 413.775 519.795 413.85 519.723C413.926 519.652 413.971 519.553 413.976 519.449C414.199 512.994 411.479 508.042 415.437 501.16C415.611 500.85 415.665 500.487 415.59 500.14C415.516 499.792 415.317 499.484 415.031 499.273C414.707 499.029 414.504 498.785 414.422 498.542C414.301 498.165 414.24 497.775 414.24 497.385L414.402 477.431C414.408 476.983 414.526 476.541 414.745 476.144C414.964 475.748 415.279 475.409 415.661 475.158C418.272 473.494 420.904 472.397 423.556 471.87C427.21 471.139 428.59 469.901 430.802 467.729C431.324 467.211 432.031 466.922 432.769 466.926C433.507 466.93 434.216 467.226 434.74 467.749L439.104 472.113C439.182 472.19 439.28 472.243 439.386 472.266C439.493 472.29 439.604 472.284 439.708 472.248C439.811 472.212 439.902 472.148 439.971 472.063C440.04 471.979 440.084 471.876 440.098 471.768C440.139 471.525 440.132 471.2 440.078 470.794C440.024 470.3 440.14 469.823 440.411 469.419C440.682 469.016 441.098 468.703 441.608 468.519C442.118 468.335 442.701 468.287 443.286 468.381C443.872 468.474 444.435 468.706 444.909 469.048C447.885 471.213 450.044 473.825 451.383 476.883C451.467 477.061 451.608 477.204 451.785 477.289C451.961 477.374 452.161 477.396 452.352 477.35C452.542 477.305 452.712 477.196 452.831 477.04C452.95 476.885 453.012 476.693 453.007 476.498C452.601 469.17 447.831 463.141 442.554 458.067C441.249 456.815 440.141 455.378 439.266 453.804C432.974 442.518 426.215 435.819 412.088 436.753C403.103 437.349 396.994 441.138 393.76 448.12C393.547 448.584 393.216 448.984 392.801 449.282C392.386 449.579 391.901 449.764 391.393 449.817C390.886 449.87 390.373 449.791 389.905 449.586C389.438 449.381 389.031 449.058 388.726 448.648L388.442 448.262C387.565 447.088 386.999 445.709 386.797 444.255C386.595 442.8 386.763 441.316 387.285 439.94C390.803 430.765 393.422 423.755 395.14 418.911C397.17 413.166 394.633 404.925 387.021 406.529C386.328 406.676 385.674 406.989 385.114 407.442C380.621 411.15 377.482 414.614 375.696 417.835C375.572 418.062 375.534 418.328 375.592 418.582C375.649 418.837 375.796 419.061 376.005 419.212C376.214 419.363 376.471 419.431 376.724 419.401C376.978 419.372 377.212 419.248 377.38 419.053C380.276 415.846 384.295 414.114 389.437 413.856C389.792 413.836 390.146 413.906 390.467 414.061C390.787 414.216 391.063 414.45 391.27 414.741C391.476 415.033 391.606 415.372 391.648 415.729C391.689 416.085 391.641 416.447 391.507 416.779L381.683 440.752C381.332 441.61 380.779 442.368 380.072 442.962C379.365 443.557 378.524 443.968 377.624 444.162C370.249 445.732 363.003 449.027 355.886 454.048C353.389 455.814 350.548 456.301 349.898 460.239C349.805 460.826 349.853 461.425 350.04 461.984C353.653 473.081 355.433 486.397 355.378 501.932C355.284 530.526 351.982 558.389 345.473 585.521C341.942 600.285 337.463 613.58 332.037 625.408C326.597 637.282 311.192 663.569 294.995 649.948C281.416 638.5 280.888 601.435 281.7 585.643C282.932 561.298 284.873 537.61 287.525 514.578C289.244 499.638 288.337 482.804 284.806 464.075C282.289 450.719 272.303 433.587 256.004 435.19C222.737 438.479 200.451 465.151 189.876 495.396C179.863 523.989 176.737 553.307 180.499 583.349C181.636 592.416 185.31 601.103 191.52 609.412C191.951 609.964 192.464 610.45 193.043 610.854C199.497 615.292 206.175 617.18 213.076 616.517C213.438 616.482 213.786 616.362 214.093 616.168C214.4 615.973 214.657 615.709 214.842 615.397C215.028 615.084 215.138 614.733 215.162 614.37C215.187 614.007 215.126 613.644 214.984 613.31C210.857 603.566 208.624 593.897 208.286 584.303C207.799 571.089 208.042 556.799 210.904 543.158C216.804 515.16 226.188 487.757 239.056 460.949C239.719 459.555 241.539 457.471 244.516 454.697C249.732 449.805 254.725 452.139 255.578 458.676C256.349 464.657 256.383 470.401 255.679 475.909C252.973 497.155 250.578 521.581 248.494 549.187C246.119 580.731 246.119 610.833 256.471 639.759C260.936 652.235 268.669 662.378 279.67 670.186C279.832 670.304 279.953 670.47 280.016 670.66C280.078 670.85 280.079 671.055 280.018 671.246C279.958 671.437 279.839 671.604 279.678 671.724C279.517 671.843 279.323 671.909 279.122 671.911L202.481 670.978C187.475 670.694 172.455 670.497 157.421 670.389C154.932 670.376 153.166 668.725 152.124 665.436C136.353 615.38 128.336 561.873 132.862 509.28C138.728 440.894 159.309 377.482 196.899 320.159C208.374 302.661 218.867 288.473 228.38 277.593C252.31 250.271 278.595 226.278 310.766 204.802C331.008 191.297 351.4 179.862 371.941 170.498C384.254 164.882 401.338 158.664 423.191 151.843C456.275 141.505 491.145 135.923 527.802 135.097C608.246 133.297 681.755 151.985 748.329 191.162C835.342 242.354 900.8 323.589 930.738 420.251C957.206 505.748 955.257 590.541 924.893 674.631C924.816 674.845 924.676 675.028 924.494 675.156C924.312 675.283 924.096 675.348 923.878 675.342L873.825 674.997ZM753.89 524.727C754.441 524.952 754.929 525.308 755.311 525.764C755.693 526.221 755.958 526.763 756.082 527.345C758.18 537.224 761.968 545.878 767.449 553.307C771.305 558.544 776.481 560.513 782.976 559.214C789.593 557.888 794.572 555.493 797.915 552.028C802.217 547.542 807.414 541.412 809.768 535.221C814.896 521.797 817.427 507.291 817.359 491.701C817.346 490.025 816.916 488.379 816.108 486.911C815.3 485.444 814.139 484.202 812.731 483.298L812.427 483.095C811.92 482.769 811.337 482.581 810.735 482.549C810.133 482.517 809.533 482.643 808.994 482.913C808.456 483.183 807.997 483.589 807.662 484.091C807.328 484.593 807.131 485.173 807.089 485.774C806.128 498.386 804.619 508.941 802.562 517.44C801.101 523.489 797.975 532.014 792.394 534.917C792.041 535.103 791.653 535.212 791.255 535.236C790.857 535.26 790.458 535.199 790.084 535.057C789.71 534.915 789.37 534.696 789.086 534.412C788.802 534.129 788.58 533.789 788.436 533.415C786.163 527.379 784.904 520.775 784.661 513.603C783.876 489.056 785.148 463.209 788.476 436.063C788.923 432.308 788.72 427.375 790.384 423.661C790.676 423.008 791.13 422.44 791.701 422.011C792.273 421.581 792.944 421.304 793.652 421.205C824.118 417.003 885.699 397.902 886.612 358.421C886.734 352.968 884.82 349.077 880.868 346.75C877.012 344.476 873.967 345.166 871.857 349.246C865.673 361.114 856.884 370.749 845.491 378.151C829.524 388.558 812.555 396.934 794.586 403.281C794.28 403.391 793.951 403.42 793.63 403.365C793.309 403.311 793.008 403.174 792.754 402.969C792.499 402.763 792.301 402.496 792.178 402.192C792.055 401.888 792.01 401.557 792.049 401.231C793.612 388.808 796.615 360.35 773.416 368.53C765.405 371.358 758.531 375.005 752.794 379.471C751.792 380.252 751.058 381.325 750.695 382.54C750.331 383.755 750.355 385.052 750.764 386.251C753.809 395.101 755.859 400.317 755.311 407.402C755.278 407.886 755.13 408.355 754.879 408.77C754.627 409.185 754.281 409.535 753.866 409.791C753.452 410.046 752.983 410.2 752.496 410.24C752.01 410.28 751.521 410.205 751.069 410.02L740.575 405.717C740.497 405.685 740.414 405.67 740.329 405.673C740.244 405.675 740.161 405.695 740.083 405.731C740.006 405.767 739.936 405.818 739.877 405.882C739.819 405.946 739.773 406.021 739.743 406.102C736.638 415.237 743.803 423.864 753.22 422.646C753.732 422.582 754.247 422.724 754.654 423.04C755.061 423.356 755.326 423.82 755.392 424.331C755.663 426.631 755.697 429.195 755.494 432.024C753.762 456.084 753.302 479.732 754.113 502.967C754.13 503.431 754.052 503.893 753.883 504.326C753.713 504.758 753.457 505.151 753.13 505.48C752.803 505.81 752.411 506.068 751.98 506.24C751.548 506.412 751.086 506.493 750.622 506.479C744.452 506.336 740.657 505.443 736.597 499.963C730.995 492.371 724.067 483.325 715.813 472.824C709.44 464.704 708.452 456.111 712.85 447.045C713.034 446.67 713.131 446.26 713.134 445.842C713.136 445.425 713.045 445.012 712.865 444.634C712.686 444.256 712.424 443.922 712.098 443.658C711.772 443.393 711.391 443.205 710.982 443.107C708.493 442.498 705.895 442.579 703.188 443.35C689.041 447.329 680.577 460.259 683.967 474.529C685.57 481.349 689.934 489.976 689.488 497.811C688.412 516.648 685.611 537.109 669.962 549.004C665.848 552.143 662.175 553.517 658.941 553.125C648.691 551.866 645.809 542.224 644.246 533.252C644.214 533.054 644.225 532.851 644.278 532.657C644.331 532.464 644.426 532.284 644.555 532.13C644.684 531.976 644.844 531.851 645.026 531.765C645.207 531.678 645.405 531.632 645.606 531.628C654.009 531.446 662.371 522.596 665.74 515.877C673.189 500.937 675.929 479.258 667.1 464.014C655.957 444.832 633.001 450.13 623.482 466.795C616.08 479.759 612.346 493.548 612.278 508.163C612.197 525.6 615.14 544.64 626.648 558.849C640.45 575.879 665.984 572.165 680.374 559.072C680.575 558.888 680.819 558.759 681.083 558.697C681.347 558.635 681.623 558.642 681.884 558.718C682.145 558.793 682.382 558.934 682.573 559.128C682.764 559.322 682.901 559.561 682.972 559.823C687.871 578.349 699.907 585.798 719.081 582.172C745.954 577.097 760.649 551.257 750.886 525.275C750.823 525.095 750.812 524.901 750.856 524.716C750.899 524.53 750.995 524.361 751.132 524.229C751.269 524.096 751.441 524.006 751.627 523.968C751.814 523.93 752.008 523.947 752.185 524.016L753.89 524.727ZM418.035 498.623L426.012 490.646C426.286 490.366 426.475 490.015 426.558 489.634C426.64 489.254 426.613 488.858 426.479 488.494C424.382 482.702 422.135 478.46 419.74 475.767C419.655 475.675 419.544 475.611 419.421 475.585C419.299 475.558 419.171 475.57 419.056 475.619C418.94 475.668 418.843 475.751 418.776 475.858C418.71 475.964 418.678 476.088 418.685 476.214C418.793 477.716 419.93 480.469 422.095 484.475C422.723 485.637 423.007 486.929 422.909 488.17C422.811 489.411 422.334 490.539 421.547 491.397C419.639 493.467 418.184 495.687 417.183 498.055C417.143 498.166 417.141 498.287 417.178 498.399C417.215 498.511 417.289 498.607 417.387 498.673C417.485 498.738 417.602 498.769 417.72 498.76C417.837 498.751 417.948 498.703 418.035 498.623ZM806.439 613.878C801.879 615.908 799.383 619.541 798.95 624.778C798.077 635.476 805.79 635.963 814.396 636.024C820.688 636.064 826.926 633.838 833.11 629.345C844.354 621.185 849.685 609.92 849.104 595.548C848.799 588.058 844.05 581.055 835.992 579.533C823.841 577.219 813.503 579.032 804.978 584.973C800.607 588.018 798.246 592.219 797.894 597.578C797.204 608.073 806.074 612.315 815.431 611.95C822.995 611.652 829.72 609.561 835.606 605.677C835.746 605.581 835.91 605.528 836.08 605.526C836.249 605.523 836.416 605.571 836.56 605.664C836.705 605.756 836.82 605.889 836.892 606.047C836.964 606.204 836.989 606.379 836.966 606.55C835.078 619.744 827.386 634.481 811.838 632.431C803.232 631.314 804.633 621.409 808.286 616.091C808.467 615.821 808.555 615.5 808.537 615.176C808.52 614.852 808.399 614.542 808.191 614.293C807.983 614.044 807.7 613.869 807.384 613.794C807.068 613.719 806.737 613.749 806.439 613.878ZM788.578 638.074C786.765 629.345 787.313 619.968 790.222 609.94C792.597 601.739 793.571 595.021 793.652 587.693C793.664 586.783 793.375 585.893 792.829 585.16C792.283 584.427 791.51 583.89 790.628 583.633C783.382 581.542 778.774 587.084 773.883 591.468C773.254 592.03 772.505 592.446 771.691 592.686L765.865 594.391C765.616 594.468 765.39 594.61 765.214 594.803C765.038 594.997 764.917 595.233 764.865 595.488C764.813 595.742 764.831 596.005 764.918 596.248C765.005 596.491 765.157 596.706 765.358 596.868C769.478 600.197 778.206 595.285 780.946 592.362C781.162 592.127 781.45 591.972 781.765 591.921C782.08 591.87 782.402 591.926 782.681 592.081C782.96 592.236 783.178 592.479 783.302 592.773C783.425 593.067 783.446 593.394 783.362 593.701C780.791 603.512 779.045 613.689 778.125 624.23C777.787 628.06 778.226 631.937 779.444 635.861C779.712 636.707 780.159 637.483 780.755 638.135C781.351 638.787 782.082 639.3 782.895 639.637L785.472 640.672C785.858 640.828 786.279 640.877 786.69 640.812C787.1 640.747 787.486 640.572 787.805 640.305C788.124 640.038 788.365 639.69 788.501 639.297C788.637 638.904 788.664 638.481 788.578 638.074ZM752.51 603.729C752.524 603.566 752.774 602.369 753.261 600.136C754.499 594.513 750.663 590.575 745 591.245C725.292 593.579 710.191 613.513 712.626 633.202C714.818 650.862 733.796 651.268 747.111 646.904C755.981 644.001 761.38 638.155 764.688 629.691C767.165 623.317 766.968 617.505 764.1 612.254C761.623 607.667 758.274 606.611 753.342 605.068C753.065 604.984 752.828 604.801 752.674 604.555C752.521 604.309 752.463 604.015 752.51 603.729ZM683.297 619.46C683.094 615.657 684.035 612.437 686.118 609.798C688.899 606.286 691.051 603.039 694.765 601.78C695.247 601.62 695.759 601.577 696.261 601.652C696.763 601.728 697.24 601.921 697.654 602.216C698.067 602.51 698.405 602.898 698.64 603.348C698.875 603.798 699.001 604.297 699.007 604.805C699.075 611.679 696.497 618.52 691.274 625.326C690.895 625.814 684.339 633.114 671.606 647.228C668.995 650.124 667.851 652.811 668.176 655.287C668.229 655.664 668.393 656.017 668.646 656.299C668.899 656.581 669.23 656.78 669.597 656.87C673.602 657.872 676.396 658.257 677.979 658.027C685.137 656.985 694.143 655.578 704.995 653.805C708.567 653.223 710.597 651.105 711.084 647.452C711.109 647.249 711.093 647.043 711.036 646.847C710.98 646.651 710.883 646.469 710.754 646.312C710.624 646.156 710.464 646.029 710.283 645.938C710.102 645.848 709.905 645.796 709.704 645.787C700.144 645.239 689.528 649.218 679.258 652.303C679.088 652.355 678.908 652.369 678.732 652.342C678.556 652.316 678.388 652.251 678.241 652.152C678.093 652.053 677.969 651.922 677.878 651.769C677.787 651.616 677.732 651.445 677.716 651.268C677.702 651.105 677.824 650.889 678.081 650.618C682.384 646.098 688.189 640.868 695.496 634.928C696.265 634.293 696.966 633.579 697.586 632.796C702.011 627.234 706.842 620.597 707.024 612.011C707.173 604.365 703.614 599.974 696.348 598.837C690.401 597.903 683.46 605.393 680.09 609.636C676.978 613.533 677.729 616.99 682.343 620.008C682.438 620.074 682.549 620.111 682.664 620.116C682.779 620.121 682.894 620.093 682.993 620.036C683.093 619.978 683.175 619.894 683.229 619.792C683.282 619.69 683.306 619.575 683.297 619.46Z" fill="#FFCB01"/>
<path d="M750.886 525.273C760.649 551.255 745.954 577.095 719.081 582.17C699.907 585.797 687.871 578.347 682.973 559.821C682.901 559.559 682.764 559.32 682.573 559.126C682.383 558.933 682.145 558.791 681.885 558.716C681.624 558.64 681.348 558.633 681.083 558.695C680.819 558.757 680.575 558.887 680.375 559.07C665.984 572.163 640.45 575.877 626.648 558.847C615.14 544.638 612.197 525.598 612.278 508.162C612.346 493.547 616.08 479.757 623.482 466.793C633.001 450.128 655.957 444.83 667.1 464.012C675.929 479.256 673.189 500.935 665.74 515.875C662.371 522.594 654.009 531.444 645.606 531.627C645.405 531.63 645.207 531.676 645.026 531.763C644.844 531.849 644.684 531.974 644.555 532.128C644.426 532.282 644.331 532.462 644.278 532.655C644.225 532.849 644.214 533.052 644.246 533.25C645.809 542.222 648.691 551.864 658.941 553.123C662.175 553.515 665.849 552.142 669.962 549.002C685.611 537.107 688.412 516.646 689.488 497.809C689.934 489.974 685.571 481.347 683.967 474.527C680.577 460.257 689.041 447.327 703.188 443.348C705.895 442.577 708.493 442.496 710.982 443.105C711.391 443.203 711.772 443.392 712.098 443.656C712.424 443.92 712.686 444.254 712.865 444.632C713.045 445.01 713.136 445.423 713.134 445.84C713.131 446.258 713.034 446.669 712.85 447.043C708.452 456.109 709.44 464.702 715.813 472.822C724.067 483.323 730.995 492.369 736.597 499.961C740.657 505.441 744.452 506.335 750.623 506.477C751.087 506.491 751.549 506.41 751.98 506.238C752.411 506.066 752.803 505.808 753.13 505.479C753.457 505.149 753.714 504.756 753.883 504.324C754.052 503.892 754.131 503.429 754.114 502.965C753.302 479.73 753.762 456.082 755.494 432.022C755.697 429.194 755.663 426.629 755.392 424.329C755.326 423.818 755.061 423.354 754.654 423.038C754.247 422.722 753.732 422.581 753.221 422.644C743.803 423.862 736.638 415.235 739.743 406.101C739.773 406.019 739.819 405.944 739.877 405.88C739.936 405.817 740.006 405.765 740.083 405.729C740.161 405.693 740.245 405.673 740.329 405.671C740.414 405.669 740.497 405.684 740.576 405.715L751.069 410.018C751.521 410.203 752.01 410.278 752.497 410.238C752.983 410.199 753.452 410.045 753.867 409.789C754.281 409.533 754.628 409.183 754.879 408.768C755.13 408.353 755.278 407.884 755.311 407.4C755.859 400.316 753.809 395.099 750.765 386.249C750.355 385.05 750.331 383.753 750.695 382.538C751.059 381.323 751.792 380.25 752.794 379.469C758.532 375.003 765.406 371.356 773.416 368.528C796.616 360.348 793.612 388.806 792.049 401.229C792.01 401.555 792.055 401.886 792.178 402.19C792.301 402.494 792.5 402.762 792.754 402.967C793.008 403.172 793.31 403.309 793.63 403.363C793.951 403.418 794.28 403.389 794.586 403.279C812.556 396.932 829.524 388.556 845.491 378.15C856.884 370.747 865.673 361.112 871.857 349.245C873.968 345.165 877.012 344.474 880.869 346.748C884.82 349.075 886.734 352.966 886.613 358.419C885.699 397.9 824.118 417.001 793.652 421.203C792.944 421.302 792.273 421.579 791.701 422.009C791.13 422.438 790.677 423.006 790.384 423.659C788.72 427.373 788.923 432.306 788.477 436.061C785.148 463.207 783.876 489.054 784.661 513.602C784.904 520.774 786.163 527.377 788.436 533.413C788.58 533.787 788.802 534.127 789.086 534.411C789.37 534.694 789.71 534.913 790.084 535.055C790.458 535.197 790.857 535.258 791.255 535.234C791.653 535.21 792.041 535.101 792.394 534.915C797.976 532.012 801.101 523.487 802.563 517.438C804.619 508.94 806.128 498.384 807.089 485.772C807.131 485.171 807.328 484.591 807.663 484.089C807.997 483.588 808.456 483.182 808.994 482.911C809.533 482.641 810.133 482.515 810.735 482.547C811.337 482.579 811.92 482.767 812.427 483.093L812.731 483.296C814.14 484.2 815.3 485.442 816.108 486.909C816.916 488.377 817.346 490.023 817.359 491.699C817.427 507.289 814.896 521.795 809.768 535.219C807.414 541.41 802.218 547.541 797.915 552.027C794.572 555.491 789.593 557.886 782.976 559.212C776.481 560.511 771.305 558.542 767.449 553.305C761.969 545.876 758.18 537.222 756.082 527.344C755.958 526.762 755.693 526.219 755.311 525.762C754.929 525.306 754.441 524.95 753.89 524.725L752.185 524.015C752.008 523.945 751.814 523.929 751.628 523.966C751.441 524.004 751.269 524.094 751.132 524.227C750.995 524.359 750.899 524.529 750.856 524.714C750.812 524.899 750.823 525.094 750.886 525.273ZM645.91 509.542C652.757 503.263 656.81 495.522 658.068 486.32C658.819 480.779 659.793 474.628 658.332 469.513C658.18 468.979 657.95 468.471 657.656 468.021C657.362 467.571 657.01 467.188 656.623 466.899C656.235 466.609 655.821 466.417 655.406 466.336C654.991 466.255 654.584 466.286 654.212 466.428C650.802 467.727 648.934 473.674 648.326 476.78C645.93 488.702 644.659 499.413 644.51 508.913C644.505 509.077 644.55 509.238 644.637 509.377C644.724 509.516 644.851 509.626 645.001 509.693C645.15 509.761 645.316 509.782 645.478 509.755C645.64 509.728 645.79 509.654 645.91 509.542ZM699.86 507.532L698.987 518.575C698.984 518.617 698.99 518.66 699.004 518.701C699.017 518.741 699.039 518.778 699.067 518.81C699.096 518.842 699.13 518.869 699.168 518.887C699.207 518.906 699.249 518.917 699.291 518.92L699.433 518.94C700.973 519.058 702.496 518.559 703.668 517.554C704.84 516.55 705.566 515.121 705.685 513.581L705.705 513.5C705.823 511.961 705.324 510.437 704.32 509.265C703.315 508.093 701.886 507.367 700.347 507.248L700.205 507.228C700.162 507.225 700.119 507.231 700.079 507.245C700.038 507.258 700.001 507.28 699.969 507.308C699.937 507.337 699.911 507.371 699.892 507.409C699.873 507.448 699.862 507.49 699.86 507.532ZM723.729 529.089C723.28 528.512 722.649 528.105 721.941 527.935C721.232 527.765 720.488 527.843 719.832 528.156C705.868 534.671 696.511 542.222 697.525 559.233C698.419 574.416 716.077 575.431 724.683 566.439C733.938 556.776 732.01 539.685 723.729 529.089Z" fill="#FFFFF6"/>
<path d="M622.345 611.624C619.368 619.973 613.495 625.291 604.727 627.578C590.695 631.259 580.093 626.942 572.922 614.628C565.554 601.941 561.778 589.823 557.76 574.173C557.727 574.022 557.645 573.886 557.527 573.788C557.408 573.689 557.26 573.632 557.106 573.628C556.951 573.623 556.8 573.67 556.676 573.762C556.551 573.853 556.461 573.984 556.42 574.132C553.565 582.928 549.648 590.716 544.668 597.496C537.929 606.712 530.176 610.426 519.134 611.258C518.479 611.312 517.821 611.222 517.206 610.995C507.646 607.584 502.552 597.11 501.131 587.976C498.195 569.207 497.572 550.329 499.264 531.343C499.399 529.868 499.372 526.634 499.182 521.641C499.115 516.187 498.019 511.187 495.894 506.64C495.593 506.009 495.513 505.294 495.668 504.609C495.822 503.925 496.202 503.31 496.747 502.864C502.511 498.155 513.086 492.492 520.352 491.7C531.13 490.543 532.51 507.168 531.739 514.556C530.359 527.656 529.073 540.687 527.882 553.651C526.908 564.301 527.632 574.532 530.054 584.343C530.184 584.867 530.437 585.354 530.79 585.762C531.144 586.171 531.59 586.49 532.09 586.694C532.591 586.898 533.132 586.98 533.671 586.935C534.21 586.89 534.73 586.718 535.189 586.433C542.029 582.171 544.79 572.103 547.408 562.704C550.953 549.957 552.435 536.107 551.853 521.153C550.838 495.131 552.787 459.121 549.357 429.161C548.585 422.367 547.212 416.366 545.236 411.156C544.848 410.136 544.812 409.015 545.136 407.97C545.46 406.925 546.124 406.018 547.023 405.391C550.757 402.779 554.018 400.628 556.806 398.936C565.574 393.638 581.67 389.883 585.445 403.199C587.921 411.9 588.51 423.49 587.211 437.97C585.587 456.076 583.95 472.484 582.299 487.194C582.299 487.235 582.373 489.237 582.522 493.202C582.54 493.579 582.682 493.939 582.924 494.226C583.167 494.513 583.496 494.709 583.862 494.786C588.855 495.74 591.514 491.112 593.482 486.646C593.609 486.365 593.804 486.121 594.049 485.936C594.295 485.751 594.582 485.632 594.885 485.589C595.188 485.547 595.496 485.582 595.78 485.692C596.064 485.803 596.314 485.984 596.507 486.22C601.202 491.917 601.317 497.715 596.852 503.615C594.538 506.66 591.006 507.939 587.292 509.603C587.066 509.704 586.868 509.857 586.713 510.05C586.559 510.243 586.452 510.471 586.403 510.714C586.353 510.958 586.362 511.21 586.428 511.451C586.495 511.692 586.617 511.915 586.784 512.1C604.754 531.844 616.723 554.835 622.69 581.075C625.166 591.941 625.051 602.124 622.345 611.624ZM582.867 529.192C582.583 540.721 581.791 601.738 592.102 609.147C592.488 609.422 592.929 609.608 593.398 609.694C593.868 609.78 594.355 609.765 594.83 609.648C595.304 609.532 595.756 609.318 596.157 609.018C596.557 608.719 596.897 608.341 597.156 607.909C598.604 605.487 599.416 602.645 599.592 599.384C600.931 574.281 596.04 550.728 584.917 528.725C584.811 528.51 584.636 528.338 584.421 528.236C584.205 528.134 583.961 528.107 583.726 528.161C583.491 528.214 583.28 528.345 583.124 528.531C582.969 528.718 582.878 528.95 582.867 529.192Z" fill="#FFFFF6"/>
<path d="M392.298 624.452L395.83 630.44C396.063 630.838 396.143 631.307 396.053 631.757C395.963 632.206 395.71 632.605 395.343 632.876C389.592 637.166 383.266 638.56 376.365 637.058C365.811 634.764 360.391 618.85 358.687 609.431C358.644 609.229 358.538 609.046 358.383 608.909C358.228 608.773 358.032 608.69 357.827 608.674C357.621 608.658 357.415 608.71 357.241 608.82C357.066 608.931 356.933 609.096 356.86 609.289C352.787 621.184 347.293 632.923 340.379 644.507C333.031 656.808 324.405 664.846 312.206 670.57C312.092 670.618 311.998 670.704 311.94 670.814C311.883 670.924 311.866 671.05 311.893 671.171C311.919 671.292 311.988 671.4 312.086 671.476C312.184 671.552 312.306 671.59 312.43 671.585L655.206 673.595L873.825 674.995C873.636 680.097 874.982 684.617 877.864 688.555L216.364 685.815C214.645 681.565 214.429 677.161 215.714 672.6C215.748 672.484 215.756 672.362 215.735 672.244C215.715 672.125 215.668 672.012 215.597 671.914C215.527 671.816 215.435 671.735 215.329 671.678C215.222 671.622 215.104 671.59 214.984 671.585L202.481 670.976L279.122 671.91C279.322 671.907 279.517 671.842 279.678 671.722C279.838 671.603 279.958 671.436 280.018 671.245C280.079 671.054 280.078 670.849 280.015 670.659C279.953 670.468 279.832 670.303 279.67 670.185C268.669 662.377 260.936 652.234 256.471 639.757C246.119 610.832 246.119 580.729 248.494 549.185C250.578 521.579 252.973 497.153 255.679 475.908C256.383 470.4 256.349 464.656 255.578 458.674C254.725 452.138 249.732 449.804 244.516 454.696C241.539 457.47 239.719 459.554 239.056 460.948C226.188 487.755 216.804 515.158 210.904 543.157C208.042 556.797 207.798 571.087 208.286 584.302C208.624 593.896 210.856 603.565 214.984 613.308C215.125 613.643 215.187 614.006 215.162 614.369C215.137 614.731 215.028 615.083 214.842 615.395C214.656 615.708 214.4 615.972 214.093 616.166C213.786 616.361 213.437 616.481 213.076 616.515C206.175 617.179 199.497 615.291 193.042 610.852C192.464 610.449 191.951 609.963 191.52 609.411C185.309 601.102 181.636 592.414 180.499 583.348C176.737 553.306 179.863 523.988 189.876 495.394C200.451 465.149 222.737 438.477 256.004 435.189C272.302 433.585 282.289 450.717 284.805 464.074C288.337 482.802 289.244 499.637 287.525 514.576C284.873 537.608 282.931 561.297 281.7 585.641C280.888 601.434 281.416 638.499 294.994 649.947C311.191 663.567 326.597 637.281 332.037 625.406C337.463 613.579 341.941 600.283 345.473 585.52C351.982 558.387 355.283 530.524 355.378 501.93C355.432 486.395 353.653 473.079 350.04 461.983C349.853 461.423 349.804 460.824 349.898 460.237C350.547 456.299 353.389 455.812 355.886 454.046C363.003 449.026 370.249 445.731 377.624 444.161C378.524 443.967 379.364 443.555 380.072 442.961C380.779 442.367 381.332 441.608 381.683 440.751L391.507 416.778C391.641 416.445 391.689 416.084 391.648 415.727C391.606 415.371 391.476 415.031 391.27 414.74C391.063 414.448 390.787 414.214 390.466 414.06C390.146 413.905 389.792 413.835 389.437 413.855C384.295 414.112 380.276 415.844 377.38 419.052C377.212 419.246 376.978 419.371 376.724 419.4C376.47 419.429 376.214 419.362 376.005 419.211C375.796 419.06 375.648 418.835 375.591 418.581C375.534 418.327 375.571 418.061 375.695 417.834C377.482 414.613 380.621 411.149 385.113 407.441C385.674 406.987 386.327 406.674 387.021 406.527C394.633 404.924 397.17 413.165 395.14 418.909C393.422 423.754 390.803 430.764 387.285 439.939C386.763 441.314 386.595 442.798 386.797 444.253C386.999 445.708 387.565 447.087 388.442 448.261L388.726 448.647C389.031 449.056 389.437 449.379 389.905 449.584C390.373 449.789 390.885 449.869 391.393 449.816C391.901 449.762 392.386 449.578 392.801 449.281C393.216 448.983 393.546 448.583 393.76 448.119C396.994 441.136 403.103 437.347 412.088 436.752C426.215 435.818 432.974 442.517 439.266 453.803C440.14 455.377 441.249 456.814 442.554 458.065C447.831 463.14 452.601 469.169 453.007 476.496C453.012 476.692 452.95 476.884 452.831 477.039C452.711 477.194 452.542 477.304 452.352 477.349C452.161 477.394 451.961 477.373 451.784 477.287C451.608 477.202 451.466 477.059 451.383 476.882C450.043 473.824 447.885 471.212 444.908 469.047C444.435 468.705 443.871 468.473 443.286 468.379C442.7 468.285 442.118 468.333 441.608 468.518C441.098 468.702 440.682 469.015 440.411 469.418C440.139 469.822 440.024 470.299 440.078 470.792C440.132 471.198 440.139 471.523 440.098 471.767C440.084 471.875 440.04 471.977 439.971 472.062C439.902 472.147 439.81 472.211 439.707 472.246C439.604 472.282 439.493 472.289 439.386 472.265C439.28 472.241 439.182 472.188 439.103 472.112L434.739 467.748C434.215 467.224 433.507 466.928 432.769 466.925C432.031 466.921 431.324 467.209 430.802 467.727C428.589 469.899 427.209 471.138 423.556 471.868C420.904 472.396 418.272 473.492 415.66 475.157C415.278 475.408 414.964 475.747 414.745 476.143C414.525 476.539 414.408 476.981 414.402 477.43L414.239 497.383C414.239 497.774 414.301 498.164 414.422 498.54C414.503 498.784 414.706 499.028 415.031 499.271C415.317 499.483 415.515 499.791 415.59 500.139C415.665 500.486 415.61 500.849 415.437 501.159C411.479 508.04 414.199 512.993 413.976 519.448C413.97 519.552 413.925 519.65 413.85 519.722C413.774 519.794 413.674 519.834 413.57 519.834H412.9C412.823 519.834 412.746 519.818 412.675 519.789C412.603 519.759 412.538 519.716 412.484 519.661C412.429 519.607 412.386 519.542 412.356 519.47C412.326 519.399 412.311 519.322 412.311 519.245V511.126C412.313 510.732 412.202 510.346 411.992 510.013C411.782 509.68 411.482 509.414 411.126 509.246C410.771 509.078 410.374 509.014 409.984 509.063C409.593 509.112 409.225 509.271 408.922 509.522C404.213 513.352 401.581 518.007 401.026 523.487C400.933 524.302 400.569 525.061 399.991 525.639L398.895 526.755C398.787 526.857 398.653 526.925 398.508 526.952C398.363 526.979 398.213 526.964 398.076 526.908C397.939 526.853 397.821 526.759 397.736 526.638C397.651 526.518 397.602 526.375 397.596 526.228C397.494 519.793 400.884 513.988 405.816 510.395C408.847 508.176 410.647 506.24 411.215 504.589C412.717 500.144 410.667 497.586 411.033 493.567C411.804 484.778 411.723 478.039 413.529 474.609C413.717 474.251 413.827 473.859 413.853 473.456C413.879 473.053 413.821 472.648 413.681 472.268C413.542 471.888 413.325 471.541 413.043 471.248C412.762 470.956 412.423 470.724 412.047 470.569L396.967 464.378C396.652 464.25 396.311 464.198 395.972 464.224C395.633 464.251 395.305 464.356 395.014 464.531C394.722 464.706 394.476 464.947 394.293 465.234C394.111 465.521 393.998 465.846 393.963 466.185C393.252 473.289 393.232 480.597 392.339 488.148C388.672 519.597 386.723 538.102 386.493 543.664C385.817 560.011 385.736 577.38 386.25 595.77C386.534 605.622 388.55 615.182 392.298 624.452Z" fill="#FFFFF6"/>
<path d="M645.91 509.543C645.79 509.655 645.639 509.729 645.478 509.756C645.316 509.783 645.15 509.761 645 509.694C644.85 509.627 644.724 509.517 644.636 509.378C644.549 509.239 644.505 509.077 644.509 508.913C644.658 499.414 645.93 488.703 648.325 476.781C648.934 473.675 650.801 467.728 654.211 466.429C654.584 466.287 654.991 466.256 655.406 466.337C655.821 466.418 656.235 466.609 656.622 466.899C657.009 467.189 657.361 467.571 657.655 468.021C657.949 468.471 658.18 468.98 658.331 469.514C659.793 474.629 658.818 480.78 658.068 486.321C656.809 495.523 652.756 503.264 645.91 509.543Z" fill="#FFCB01"/>
<path d="M418.035 498.622C417.948 498.702 417.837 498.75 417.719 498.759C417.602 498.768 417.484 498.737 417.386 498.672C417.288 498.606 417.215 498.51 417.178 498.398C417.141 498.286 417.143 498.165 417.183 498.054C418.184 495.686 419.638 493.467 421.546 491.396C422.334 490.539 422.811 489.41 422.909 488.169C423.007 486.928 422.722 485.636 422.094 484.474C419.929 480.469 418.793 477.715 418.685 476.213C418.678 476.088 418.71 475.963 418.776 475.857C418.842 475.751 418.94 475.667 419.055 475.618C419.171 475.57 419.298 475.558 419.421 475.584C419.544 475.61 419.655 475.674 419.74 475.766C422.135 478.459 424.381 482.702 426.479 488.493C426.613 488.857 426.64 489.253 426.557 489.634C426.475 490.015 426.285 490.365 426.012 490.645L418.035 498.622Z" fill="#FFFFF6"/>
<path d="M490.171 522.351C489.846 535.2 487.39 545.897 482.194 558.564C474.177 578.172 471.66 609.594 493.479 621.996C493.913 622.244 494.293 622.577 494.596 622.975C494.899 623.372 495.119 623.826 495.242 624.31C495.366 624.793 495.39 625.296 495.313 625.788C495.237 626.28 495.062 626.751 494.798 627.173C489.176 636.124 481.138 638.276 471.233 637.18C462.404 636.205 455.036 626.827 452.783 619.073C448.643 604.743 449.577 586.21 452.012 572.245C454.57 557.549 456.227 547.386 456.985 541.756C457.892 534.99 457.533 528.535 455.909 522.392C455.802 521.983 455.598 521.605 455.316 521.291C455.034 520.976 454.681 520.734 454.287 520.585C453.893 520.436 453.469 520.384 453.052 520.433C452.635 520.483 452.237 520.632 451.89 520.869C446.674 524.442 446.025 528.644 443.954 534.165C436.485 554.071 432.892 574.423 433.177 595.223C433.285 603.369 434.225 610.765 435.998 617.409C436.092 617.759 436.235 618.094 436.424 618.404L439.184 622.95C439.361 623.242 439.478 623.566 439.526 623.904C439.575 624.241 439.555 624.585 439.468 624.915C439.381 625.244 439.228 625.553 439.019 625.823C438.81 626.092 438.549 626.316 438.251 626.482C434.218 628.742 429.841 629.926 425.119 630.035C413.001 630.298 408.434 621.611 405.37 611.583C402.961 603.775 401.601 598.186 401.29 594.817C399.747 578.307 398.726 561.717 398.225 545.045C398.103 541.323 397.765 537.94 397.21 534.896C397.052 533.988 397.185 533.055 397.59 532.231C397.995 531.406 398.651 530.733 399.463 530.308L413.732 522.899C414 522.765 414.289 522.682 414.584 522.656C418.59 522.304 420.958 522.216 421.688 522.392C428.711 524.015 427.798 532.521 428.285 539.118C428.301 539.289 428.376 539.45 428.497 539.573C428.618 539.696 428.778 539.774 428.95 539.793C429.121 539.812 429.294 539.771 429.439 539.678C429.584 539.585 429.693 539.444 429.746 539.28C434.922 523.102 439.59 507.817 451.687 495.313C453.988 492.932 456.261 491.511 458.507 491.051C478.987 486.849 490.292 503.94 490.171 522.351Z" fill="#FFFFF6"/>
<path d="M699.86 507.534C699.862 507.491 699.873 507.449 699.892 507.411C699.911 507.372 699.937 507.338 699.969 507.31C700.001 507.281 700.039 507.26 700.079 507.246C700.119 507.232 700.162 507.226 700.205 507.229L700.347 507.25C701.886 507.369 703.315 508.094 704.32 509.266C705.325 510.439 705.823 511.962 705.705 513.501L705.685 513.583C705.566 515.122 704.84 516.551 703.668 517.556C702.496 518.561 700.973 519.059 699.434 518.941L699.292 518.921C699.249 518.919 699.207 518.908 699.169 518.889C699.13 518.87 699.096 518.844 699.068 518.812C699.039 518.78 699.018 518.742 699.004 518.702C698.99 518.662 698.984 518.619 698.987 518.576L699.86 507.534Z" fill="#FFCB01"/>
<path d="M490.171 522.352L499.183 521.642C499.372 526.635 499.399 529.869 499.264 531.344C497.573 550.33 498.195 569.208 501.131 587.977C502.552 597.111 507.647 607.585 517.207 610.996C517.821 611.223 518.479 611.313 519.135 611.259C530.176 610.427 537.93 606.713 544.669 597.497C549.648 590.717 553.565 582.93 556.42 574.133C556.462 573.985 556.552 573.854 556.676 573.763C556.801 573.671 556.952 573.624 557.106 573.629C557.26 573.633 557.409 573.69 557.527 573.789C557.646 573.887 557.728 574.023 557.76 574.174C561.779 589.824 565.554 601.942 572.922 614.629C580.094 626.943 590.695 631.26 604.727 627.579C613.496 625.292 619.368 619.974 622.345 611.625C637.027 630.137 647.98 650.794 655.206 673.596L312.43 671.587C312.306 671.592 312.184 671.553 312.086 671.477C311.988 671.402 311.92 671.294 311.893 671.173C311.867 671.052 311.883 670.925 311.941 670.815C311.998 670.705 312.092 670.619 312.207 670.572C324.405 664.848 333.031 656.809 340.379 644.508C347.293 632.925 352.787 621.185 356.86 609.29C356.933 609.097 357.067 608.933 357.241 608.822C357.415 608.711 357.621 608.66 357.827 608.676C358.033 608.692 358.228 608.774 358.383 608.911C358.538 609.047 358.645 609.23 358.687 609.433C360.392 618.851 365.811 634.765 376.366 637.059C383.267 638.561 389.592 637.167 395.343 632.877C395.71 632.606 395.963 632.208 396.053 631.758C396.143 631.308 396.064 630.839 395.83 630.442L392.299 624.453C394.22 617.62 398.577 613.33 405.37 611.584C408.435 621.612 413.002 630.299 425.119 630.036C429.841 629.927 434.219 628.743 438.251 626.483C438.549 626.317 438.81 626.093 439.019 625.824C439.229 625.554 439.381 625.245 439.468 624.916C439.556 624.586 439.575 624.242 439.527 623.905C439.478 623.567 439.362 623.243 439.185 622.951L436.424 618.405C436.236 618.095 436.092 617.76 435.998 617.41C434.226 610.766 433.285 603.37 433.177 595.224C432.893 574.424 436.485 554.072 443.955 534.166C446.025 528.645 446.674 524.443 451.891 520.87C452.237 520.633 452.636 520.484 453.053 520.434C453.47 520.385 453.893 520.437 454.287 520.586C454.681 520.735 455.034 520.977 455.316 521.292C455.599 521.606 455.802 521.984 455.91 522.393C457.533 528.536 457.892 534.991 456.985 541.757C456.228 547.387 454.57 557.55 452.013 572.246C449.577 586.211 448.643 604.744 452.784 619.074C455.037 626.828 462.405 636.206 471.234 637.181C481.139 638.277 489.176 636.125 494.799 627.173C495.062 626.752 495.237 626.281 495.314 625.789C495.39 625.297 495.366 624.794 495.243 624.311C495.119 623.827 494.9 623.373 494.597 622.976C494.294 622.578 493.914 622.245 493.479 621.997C471.66 609.595 474.177 578.173 482.194 558.565C487.39 545.898 489.846 535.201 490.171 522.352Z" fill="#FA9A05"/>
<path d="M723.729 529.09C732.01 539.686 733.938 556.777 724.683 566.439C716.077 575.431 698.418 574.416 697.525 559.233C696.511 542.223 705.867 534.672 719.832 528.156C720.488 527.844 721.232 527.766 721.94 527.936C722.649 528.105 723.28 528.513 723.729 529.09Z" fill="#FFCB01"/>
<path d="M582.867 529.192C582.878 528.951 582.969 528.719 583.124 528.532C583.28 528.345 583.492 528.215 583.726 528.162C583.961 528.108 584.205 528.135 584.421 528.237C584.636 528.339 584.811 528.511 584.917 528.726C596.04 550.729 600.932 574.282 599.592 599.385C599.416 602.646 598.604 605.488 597.156 607.91C596.897 608.342 596.557 608.72 596.157 609.019C595.756 609.318 595.305 609.533 594.83 609.649C594.355 609.766 593.868 609.781 593.399 609.695C592.929 609.609 592.488 609.423 592.102 609.148C581.791 601.739 582.583 540.722 582.867 529.192Z" fill="#FA9A05"/>
<path d="M806.439 613.877C806.737 613.747 807.068 613.718 807.384 613.793C807.7 613.868 807.983 614.043 808.191 614.292C808.399 614.541 808.52 614.851 808.538 615.175C808.555 615.499 808.467 615.819 808.286 616.089C804.633 621.407 803.232 631.313 811.838 632.43C827.386 634.48 835.078 619.743 836.966 606.549C836.99 606.378 836.964 606.203 836.892 606.045C836.82 605.888 836.705 605.755 836.56 605.663C836.416 605.57 836.249 605.522 836.08 605.524C835.911 605.527 835.746 605.58 835.606 605.676C829.72 609.56 822.995 611.651 815.431 611.948C806.074 612.314 797.204 608.071 797.894 597.577C798.246 592.218 800.607 588.016 804.978 584.972C813.503 579.031 823.841 577.218 835.992 579.532C844.05 581.054 848.799 588.057 849.104 595.547C849.686 609.918 844.354 621.184 833.11 629.344C826.926 633.837 820.688 636.063 814.396 636.022C805.79 635.961 798.077 635.474 798.95 624.777C799.383 619.54 801.879 615.907 806.439 613.877ZM835.809 587.888C834.355 584.932 831.429 582.85 827.675 582.101C823.921 581.352 819.647 581.997 815.792 583.893C811.938 585.79 808.819 588.783 807.122 592.215C805.425 595.646 805.289 599.235 806.744 602.191C808.198 605.147 811.124 607.229 814.878 607.978C818.632 608.727 822.906 608.083 826.761 606.186C830.615 604.289 833.734 601.296 835.431 597.864C837.128 594.433 837.264 590.844 835.809 587.888Z" fill="#FFFFF6"/>
<path d="M826.76 606.186C834.787 602.236 838.838 594.044 835.809 587.888C832.78 581.732 823.818 579.944 815.792 583.893C807.765 587.843 803.714 596.035 806.743 602.191C809.772 608.347 818.734 610.136 826.76 606.186Z" fill="#FFCB01"/>
<path d="M788.578 638.074C788.663 638.481 788.637 638.903 788.501 639.297C788.364 639.69 788.124 640.038 787.805 640.305C787.486 640.572 787.1 640.747 786.689 640.812C786.279 640.876 785.858 640.828 785.472 640.672L782.895 639.637C782.082 639.3 781.351 638.787 780.755 638.135C780.159 637.483 779.712 636.707 779.444 635.861C778.226 631.937 777.786 628.06 778.125 624.23C779.045 613.688 780.79 603.512 783.361 593.701C783.446 593.394 783.425 593.067 783.302 592.773C783.178 592.479 782.96 592.235 782.681 592.081C782.402 591.926 782.079 591.87 781.765 591.921C781.45 591.972 781.162 592.127 780.946 592.361C778.206 595.284 769.478 600.197 765.358 596.868C765.157 596.705 765.005 596.491 764.918 596.248C764.831 596.005 764.813 595.742 764.865 595.487C764.917 595.233 765.038 594.996 765.214 594.803C765.39 594.61 765.615 594.468 765.865 594.391L771.691 592.686C772.505 592.446 773.254 592.03 773.883 591.468C778.774 587.084 783.382 581.542 790.628 583.633C791.51 583.89 792.283 584.427 792.829 585.16C793.375 585.893 793.664 586.783 793.652 587.693C793.571 595.021 792.597 601.739 790.222 609.94C787.313 619.967 786.765 629.345 788.578 638.074Z" fill="#FFFFF6"/>
<path d="M752.51 603.728C752.463 604.014 752.521 604.308 752.674 604.554C752.828 604.8 753.065 604.983 753.342 605.067C758.274 606.61 761.623 607.666 764.1 612.253C766.968 617.504 767.165 623.316 764.688 629.689C761.38 638.154 755.981 644 747.111 646.903C733.796 651.267 714.818 650.861 712.626 633.201C710.191 613.512 725.292 593.578 745 591.244C750.663 590.574 754.499 594.512 753.261 600.135C752.774 602.368 752.524 603.565 752.51 603.728ZM740.535 613.106L740.697 612.131C740.789 611.563 741.051 611.039 741.448 610.629C744.872 607.07 747.456 603.159 749.202 598.897C749.385 598.451 749.477 597.972 749.471 597.491C749.465 597.009 749.363 596.534 749.169 596.096C748.975 595.657 748.695 595.263 748.344 594.939C747.994 594.614 747.581 594.365 747.131 594.208C742.443 592.543 735.136 601.109 732.66 604.783C728.817 610.48 725.792 617.125 723.587 624.716C723.046 626.584 723.073 630.765 723.668 637.261C723.76 638.224 724.15 639.139 724.784 639.879C733.492 649.805 749.08 645.969 755.433 635.982C759.614 629.426 763.125 611.583 751.028 610.792C750.667 610.778 750.314 610.841 749.993 610.974L742.017 614.283C741.838 614.359 741.643 614.386 741.45 614.36C741.258 614.334 741.077 614.257 740.925 614.136C740.773 614.015 740.657 613.856 740.588 613.674C740.519 613.493 740.501 613.297 740.535 613.106Z" fill="#FFFFF6"/>
<path d="M740.535 613.106C740.501 613.297 740.519 613.494 740.588 613.675C740.657 613.856 740.773 614.016 740.925 614.136C741.077 614.257 741.258 614.334 741.45 614.36C741.643 614.386 741.838 614.36 742.016 614.283L749.993 610.975C750.314 610.841 750.667 610.779 751.028 610.792C763.125 611.584 759.614 629.426 755.433 635.983C749.08 645.969 733.492 649.806 724.784 639.88C724.15 639.139 723.76 638.225 723.668 637.261C723.073 630.766 723.046 626.584 723.587 624.717C725.792 617.125 728.817 610.481 732.66 604.784C735.136 601.11 742.443 592.544 747.131 594.208C747.581 594.366 747.994 594.615 748.344 594.939C748.695 595.264 748.975 595.657 749.169 596.096C749.363 596.535 749.465 597.009 749.471 597.491C749.477 597.973 749.385 598.451 749.202 598.897C747.456 603.16 744.872 607.071 741.448 610.63C741.051 611.04 740.789 611.564 740.697 612.132L740.535 613.106Z" fill="#FFCB01"/>
<path d="M683.297 619.459C683.306 619.574 683.283 619.689 683.229 619.791C683.175 619.893 683.093 619.977 682.993 620.035C682.894 620.092 682.779 620.12 682.664 620.115C682.549 620.11 682.438 620.073 682.343 620.007C677.729 616.989 676.978 613.532 680.09 609.634C683.46 605.392 690.401 597.902 696.348 598.836C703.615 599.972 707.173 604.364 707.024 612.009C706.842 620.596 702.011 627.233 697.586 632.795C696.966 633.578 696.265 634.292 695.496 634.926C688.189 640.867 682.384 646.097 678.081 650.617C677.824 650.888 677.702 651.104 677.716 651.267C677.732 651.444 677.788 651.615 677.878 651.768C677.969 651.921 678.093 652.052 678.241 652.151C678.388 652.25 678.556 652.315 678.732 652.341C678.908 652.367 679.088 652.354 679.258 652.302C689.528 649.216 700.144 645.238 709.704 645.786C709.905 645.795 710.102 645.847 710.283 645.937C710.464 646.027 710.624 646.155 710.754 646.311C710.884 646.468 710.98 646.649 711.037 646.846C711.093 647.042 711.109 647.248 711.084 647.451C710.597 651.104 708.567 653.222 704.995 653.804C694.143 655.577 685.138 656.984 677.979 658.026C676.396 658.256 673.602 657.87 669.597 656.869C669.23 656.779 668.899 656.58 668.646 656.298C668.393 656.016 668.229 655.663 668.176 655.286C667.851 652.809 668.995 650.123 671.606 647.227C684.339 633.113 690.895 625.812 691.274 625.325C696.497 618.518 699.075 611.678 699.007 604.803C699.001 604.296 698.875 603.797 698.64 603.347C698.405 602.897 698.067 602.509 697.654 602.215C697.24 601.92 696.763 601.727 696.261 601.651C695.76 601.575 695.247 601.619 694.765 601.779C691.051 603.037 688.899 606.285 686.119 609.797C684.035 612.436 683.094 615.656 683.297 619.459Z" fill="#FFFFF6"/>
<path d="M216.363 685.814L877.864 688.555L919.108 688.616C919.197 688.617 919.285 688.639 919.363 688.681C919.442 688.723 919.51 688.782 919.56 688.854C919.61 688.926 919.641 689.009 919.651 689.094C919.66 689.18 919.648 689.267 919.615 689.346C901.902 733.448 877.587 773.348 846.667 809.047C816.141 805.555 786.927 803.661 759.025 803.363C649.198 802.166 502.694 802.206 374.416 801.902C325.582 801.78 280.989 802.348 232.845 807.504C201.75 771.535 177.481 731.473 160.039 687.317C159.987 687.178 159.968 687.029 159.986 686.883C160.004 686.736 160.057 686.596 160.141 686.474C160.224 686.352 160.337 686.252 160.467 686.183C160.598 686.115 160.744 686.079 160.892 686.078L216.363 685.814ZM537.462 700.186C614.977 700.165 660.787 699.557 753.118 697.73C777.177 697.256 792.745 696.498 799.822 695.456C799.964 695.436 800.167 695.456 799.944 695.456C712.45 693.102 624.956 691.931 537.462 691.945C449.955 691.972 362.455 693.176 274.961 695.558C274.758 695.578 274.961 695.558 275.103 695.578C282.18 696.606 297.748 697.358 321.807 697.831C414.138 699.617 459.928 700.206 537.462 700.186ZM335.284 711.736C346.325 712.155 358.781 712.358 372.651 712.345C389.335 712.331 401.784 712.419 409.997 712.608C477.113 714.124 544.81 714.699 613.089 714.334C655.084 714.111 691.375 712.629 730.751 711.817C730.789 711.817 730.83 711.809 730.868 711.795C730.905 711.78 730.938 711.76 730.962 711.736C730.986 711.711 731 711.685 731.003 711.66C731.005 711.634 730.995 711.611 730.974 711.594C730.893 711.539 730.832 711.485 730.792 711.431C730.62 711.248 730.399 711.126 730.162 711.086C724.777 710.328 718.221 709.868 710.495 709.706C682.85 709.158 646.823 708.914 618.326 708.122C523.315 705.463 428.833 704.733 335.284 711.736ZM538.964 727.426C551.657 727.413 569.931 727.237 593.787 726.899C627.047 726.425 658.061 725.674 686.828 724.646C686.938 724.64 687.041 724.593 687.117 724.514C687.192 724.434 687.234 724.329 687.234 724.219C687.234 724.115 687.194 724.015 687.123 723.939C687.051 723.863 686.953 723.818 686.849 723.813C637.608 722.271 588.246 721.235 538.964 721.256C489.663 721.276 440.301 722.372 391.06 723.955C390.956 723.961 390.858 724.006 390.786 724.081C390.714 724.157 390.674 724.257 390.674 724.361C390.674 724.471 390.716 724.576 390.792 724.656C390.868 724.735 390.971 724.782 391.08 724.788C419.861 725.789 450.875 726.513 484.122 726.96C507.991 727.271 526.272 727.426 538.964 727.426ZM549.661 739.646C584.247 739.66 617.047 738.631 648.061 736.561C648.107 736.569 648.152 736.558 648.186 736.532C648.22 736.505 648.241 736.465 648.243 736.419C648.246 736.373 648.231 736.326 648.2 736.288C648.17 736.25 648.127 736.224 648.081 736.216C645.592 735.661 643.048 735.322 640.45 735.201C609.706 733.82 579.443 733.123 549.661 733.11C519.878 733.096 489.609 733.773 458.852 735.14C456.268 735.262 453.73 735.593 451.241 736.134C451.197 736.143 451.157 736.167 451.127 736.202C451.097 736.238 451.081 736.282 451.081 736.326C451.081 736.37 451.097 736.41 451.127 736.439C451.157 736.467 451.197 736.482 451.241 736.48C482.268 738.577 515.075 739.633 549.661 739.646ZM598.333 751.176C598.333 750.605 593.141 750.058 583.899 749.654C574.657 749.251 562.122 749.024 549.052 749.024C535.982 749.024 523.447 749.251 514.205 749.654C504.963 750.058 499.771 750.605 499.771 751.176C499.771 751.746 504.963 752.294 514.205 752.697C523.447 753.101 535.982 753.327 549.052 753.327C562.122 753.327 574.657 753.101 583.899 752.697C593.141 752.294 598.333 751.746 598.333 751.176Z" fill="#0D8AC5"/>
<path d="M537.463 691.945C624.957 691.932 712.451 693.102 799.944 695.457C800.168 695.457 799.965 695.437 799.823 695.457C792.746 696.499 777.178 697.257 753.119 697.731C660.788 699.557 614.977 700.166 537.463 700.187C459.928 700.207 414.138 699.618 321.807 697.832C297.748 697.358 282.181 696.607 275.104 695.579C274.962 695.559 274.759 695.579 274.962 695.559C362.455 693.177 449.956 691.972 537.463 691.945Z" fill="#E1FEFE"/>
<path d="M335.284 711.736C428.833 704.733 523.316 705.463 618.326 708.123C646.823 708.914 682.851 709.158 710.495 709.706C718.221 709.868 724.777 710.328 730.163 711.086C730.4 711.126 730.621 711.248 730.792 711.431C730.833 711.485 730.894 711.539 730.975 711.594C730.995 711.611 731.005 711.635 731.003 711.66C731.001 711.685 730.987 711.712 730.963 711.736C730.939 711.76 730.906 711.78 730.868 711.795C730.83 711.809 730.79 711.817 730.752 711.817C691.375 712.629 655.084 714.111 613.09 714.334C544.81 714.699 477.113 714.124 409.998 712.609C401.784 712.419 389.335 712.331 372.651 712.345C358.781 712.358 346.326 712.155 335.284 711.736Z" fill="#E1FEFE"/>
<path d="M538.965 721.256C588.246 721.236 637.608 722.271 686.849 723.814C686.953 723.819 687.051 723.864 687.123 723.94C687.195 724.015 687.235 724.115 687.235 724.22C687.235 724.329 687.193 724.435 687.117 724.514C687.042 724.594 686.938 724.641 686.829 724.646C658.061 725.674 627.047 726.426 593.787 726.899C569.931 727.237 551.657 727.413 538.965 727.427C526.273 727.427 507.992 727.271 484.122 726.96C450.876 726.513 419.862 725.789 391.081 724.788C390.971 724.783 390.868 724.736 390.792 724.656C390.717 724.577 390.675 724.471 390.675 724.362C390.675 724.258 390.715 724.157 390.786 724.082C390.858 724.006 390.956 723.961 391.06 723.956C440.301 722.373 489.663 721.276 538.965 721.256Z" fill="#E1FEFE"/>
<path d="M549.662 733.11C579.444 733.123 609.707 733.82 640.45 735.2C643.048 735.322 645.592 735.66 648.082 736.215C648.128 736.223 648.17 736.249 648.201 736.287C648.231 736.326 648.247 736.373 648.244 736.418C648.241 736.464 648.221 736.505 648.186 736.531C648.152 736.558 648.107 736.568 648.062 736.56C617.048 738.631 584.248 739.659 549.662 739.646C515.075 739.632 482.269 738.577 451.241 736.479C451.198 736.481 451.157 736.467 451.127 736.438C451.098 736.41 451.081 736.369 451.081 736.326C451.081 736.282 451.098 736.237 451.127 736.202C451.157 736.166 451.198 736.142 451.241 736.134C453.731 735.593 456.268 735.261 458.853 735.139C489.609 733.773 519.879 733.096 549.662 733.11Z" fill="#E1FEFE"/>
<path d="M549.053 753.327C576.27 753.327 598.334 752.363 598.334 751.175C598.334 749.987 576.27 749.023 549.053 749.023C521.835 749.023 499.771 749.987 499.771 751.175C499.771 752.363 521.835 753.327 549.053 753.327Z" fill="#E1FEFE"/>
<path d="M846.667 809.048L814.618 841.891C783.063 839.414 755.757 838.19 732.7 838.217C631.688 838.366 529.296 838.474 425.524 838.542C372.712 838.582 321.604 835.639 269.318 844.672C256.518 833.156 244.36 820.767 232.845 807.505C280.989 802.349 325.582 801.781 374.417 801.903C502.694 802.207 649.198 802.167 759.025 803.364C786.927 803.662 816.141 805.557 846.667 809.048Z" fill="#1A7EB5"/>
<path d="M814.618 841.889C712.037 934.389 572.008 969.668 437.845 935.465C375.14 919.497 318.965 889.232 269.318 844.67C321.604 835.637 372.711 838.581 425.524 838.54C529.296 838.472 631.688 838.364 732.7 838.215C755.757 838.188 783.063 839.413 814.618 841.889Z" fill="#2572A5"/>
</g>
<defs>
<clipPath id="clip0_94_991">
<rect width="820" height="816" fill="white" transform="translate(130 134)"/>
</clipPath>
</defs>
</svg>
